<?xml version="1.0" encoding="UTF-8" standalone="no"?>
<!-- Created with Inkscape (http://www.inkscape.org/) -->

<svg
   xmlns:dc="http://purl.org/dc/elements/1.1/"
   xmlns:cc="http://creativecommons.org/ns#"
   xmlns:rdf="http://www.w3.org/1999/02/22-rdf-syntax-ns#"
   xmlns:svg="http://www.w3.org/2000/svg"
   xmlns="http://www.w3.org/2000/svg"
   xmlns:sodipodi="http://sodipodi.sourceforge.net/DTD/sodipodi-0.dtd"
   xmlns:inkscape="http://www.inkscape.org/namespaces/inkscape"
   width="210mm"
   height="297mm"
   viewBox="0 0 210 297"
   version="1.1"
   id="svg8"
   inkscape:version="0.92.3 (2405546, 2018-03-11)"
   sodipodi:docname="drawing.svg">
  <defs
     id="defs2" />
  <sodipodi:namedview
     id="base"
     pagecolor="#ffffff"
     bordercolor="#666666"
     borderopacity="1.0"
     inkscape:pageopacity="0.0"
     inkscape:pageshadow="2"
     inkscape:zoom="0.35"
     inkscape:cx="400"
     inkscape:cy="560"
     inkscape:document-units="mm"
     inkscape:current-layer="layer1"
     showgrid="false"
     inkscape:window-width="1920"
     inkscape:window-height="1017"
     inkscape:window-x="1912"
     inkscape:window-y="-8"
     inkscape:window-maximized="1" />
  <metadata
     id="metadata5">
    <rdf:RDF>
      <cc:Work
         rdf:about="">
        <dc:format>image/svg+xml</dc:format>
        <dc:type
           rdf:resource="http://purl.org/dc/dcmitype/StillImage" />
        <dc:title></dc:title>
      </cc:Work>
    </rdf:RDF>
  </metadata>
  <g
     inkscape:label="Layer 1"
     inkscape:groupmode="layer"
     id="layer1">
    <path
       style="fill:none;stroke:#000000;stroke-width:0.26458332px;stroke-linecap:butt;stroke-linejoin:miter;stroke-opacity:1"
       d="m 43.845239,38.464286 c 1.511903,-0.251984 3.061927,-0.334873 4.535712,-0.755952 0.342649,-0.0979 0.459444,-0.558281 0.755954,-0.755954 0.468821,-0.312547 0.977366,-0.577773 1.511904,-0.755952 0.478107,-0.159369 1.061143,0.22538 1.511905,0 0.812623,-0.406312 1.424297,-1.17448 2.267858,-1.511906 0.467921,-0.187168 1.007935,0 1.511903,0 0.251984,0 0.577773,0.178181 0.755952,0 0.178181,-0.178178 -0.178179,-0.57777 0,-0.755951 0.178181,-0.178179 0.5169,0.07968 0.755954,0 0.534538,-0.178179 0.988751,-0.54669 1.511903,-0.755952 0.739852,-0.295942 1.528006,-0.460012 2.267858,-0.755951 0.523152,-0.209262 0.977365,-0.577774 1.511906,-0.755955 0.478104,-0.159369 1.06114,0.225383 1.511903,0 0.318738,-0.159369 0.41788,-0.64326 0.755954,-0.755951 0.514273,-0.171426 3.378925,0.200416 3.779761,0 0.318738,-0.159369 0.437216,-0.596583 0.755951,-0.755952 0.604764,-0.302382 1.663097,0.302379 2.267858,0 0.225383,-0.112691 -0.178178,-0.577773 0,-0.755954 0.178181,-0.178179 0.503968,0 0.755952,0 0.298838,0 3.456908,0.161427 3.779763,0 0.318738,-0.159367 0.41788,-0.64326 0.755952,-0.755952 0.406405,-0.135469 2.383782,0 3.023809,0 2.015873,0 4.031747,0 6.04762,0 2.015871,0 4.031745,0 6.047619,0 0.340447,0 2.037794,-0.11503 2.267857,0 0.318736,0.159369 0.437214,0.596585 0.755952,0.755952 0.450762,0.225382 1.155546,-0.35636 1.511906,0 0.178178,0.178181 -0.225383,0.643263 0,0.755954 0.47513,0.237567 2.548675,-0.237567 3.023809,0 0.637476,0.318736 0.835756,1.286523 1.511906,1.511903 0.4781,0.159369 1.06114,-0.22538 1.5119,0 0.45077,0.225383 -0.35636,1.155547 0,1.511906 0.17818,0.178179 0.53057,-0.112691 0.75595,0 2.50718,2.507179 -0.71271,-0.356359 1.51191,0.755952 0.63747,0.318738 0.91889,1.11656 1.5119,1.511906 0.46883,0.312547 1.04309,0.443404 1.51191,0.755951 0.59302,0.395346 0.87443,1.193168 1.5119,1.511906 0.22539,0.112689 0.57778,-0.178181 0.75596,0 0.17818,0.178179 -0.17818,0.577771 0,0.755952 0.17818,0.178178 0.57777,-0.178181 0.75595,0 0.17818,0.178178 -0.11269,0.530571 0,0.755951 0.15937,0.318739 0.50397,0.503968 0.75595,0.755952 0.25198,0.251984 0.43722,0.596585 0.75595,0.755954 0.22538,0.112689 0.57778,-0.178181 0.75596,0 0.39842,0.39842 0.4434,1.043083 0.75595,1.511904 0.19767,0.29651 0.59658,0.437216 0.75595,0.755954 0.11269,0.22538 -0.17818,0.57777 0,0.755951 0.35636,0.35636 1.15555,-0.356359 1.51191,0 0.35635,0.35636 -0.35636,1.155544 0,1.511904 0.51353,0.51354 1.5034,-0.772946 2.26785,0.755954 0.22538,0.450763 -0.22538,1.06114 0,1.511903 1.57305,3.146094 -0.0522,-0.808141 1.51191,0.755954 0.17818,0.178179 -0.11269,0.530569 0,0.755952 0.15937,0.318738 0.59658,0.437213 0.75595,0.755952 0.11269,0.225382 -0.17818,0.577773 0,0.755951 0.17818,0.178181 0.53057,-0.112688 0.75595,0 3.14609,1.573049 -0.80814,-0.05219 0.75595,1.511906 0.17818,0.178178 0.57778,-0.178181 0.75596,0 0.39842,0.398423 0.28713,1.199356 0.75595,1.511906 4.28373,0 0.25198,-0.50397 1.5119,0.755952 0.17818,0.178178 0.57778,-0.178181 0.75596,0 0.35636,0.356359 -0.35636,1.155543 0,1.511903 0.17818,0.178181 0.57777,-0.178179 0.75595,0 1.56409,1.564092 -2.39014,-0.06114 0.75595,1.511906 1.04273,0.521364 0.67618,-0.915501 1.51191,0.755951 0.11269,0.225383 -0.1127,0.530572 0,0.755955 0.15937,0.318735 0.50396,0.503967 0.75595,0.755951 0.25198,0.251984 0.43721,0.596583 0.75595,0.755952 0.22538,0.112691 0.64326,-0.22538 0.75595,0 0.22538,0.450762 -0.22538,1.061143 0,1.511906 0.11269,0.22538 0.57777,-0.178181 0.75596,0 0.17818,0.178178 -0.0797,0.516898 0,0.755951 0.17818,0.534538 0.35753,1.113483 0.75595,1.511906 0.17818,0.178179 0.57777,-0.178181 0.75595,0 0.15454,0.154543 -0.14986,1.968127 0,2.267855 0.31874,0.637477 1.19317,0.874429 1.5119,1.511906 0.1127,0.22538 -0.17817,0.577773 0,0.755952 0.17819,0.178181 0.57778,-0.178179 0.75596,0 0.17818,0.178181 -0.17818,0.577773 0,0.755954 0.17818,0.178178 0.57777,-0.178181 0.75595,0 0.22367,0.223671 -0.23412,2.55556 0,3.023809 0.15937,0.318735 0.64326,0.41788 0.75595,0.755951 0.13547,0.406406 0,2.383783 0,3.02381 0,2.267857 0,4.535715 0,6.803572 0,0.251984 0,0.503968 0,0.755952 0,0.251984 0.17818,0.577773 0,0.755951 -0.17818,0.178181 -0.57777,-0.178178 -0.75595,0 -0.15455,0.154546 0.14986,1.96813 0,2.267858 -0.15937,0.318738 -0.59659,0.437216 -0.75595,0.755951 -0.11269,0.225383 0.17818,0.577774 0,0.755955 -0.17818,0.178178 -0.57777,-0.178181 -0.75596,0 -0.35636,0.356359 0.22539,1.06114 0,1.511903 -0.15937,0.318738 -0.59658,0.437216 -0.75595,0.755954 -0.14986,0.299728 0.15455,2.113312 0,2.267855 -0.35636,0.356359 -1.15554,-0.356359 -1.5119,0 -0.17818,0.178181 0.11269,0.530572 0,0.755954 -0.31874,0.637474 -1.11656,0.918885 -1.51191,1.511904 -0.0939,0.140813 -1.46346,2.975369 -1.5119,3.023809 -0.17818,0.178181 -0.57778,-0.178179 -0.75595,0 -0.17819,0.178181 0.17817,0.577773 0,0.755954 -0.17819,0.178178 -0.57778,-0.178181 -0.75596,0 -0.17818,0.178178 0.17818,0.57777 0,0.755951 -1.56409,1.564093 0.0611,-2.390139 -1.5119,0.755953 -0.22538,0.45076 0.35636,1.15555 0,1.5119 -0.17818,0.17818 -0.57777,-0.17818 -0.75595,0 -0.17818,0.17818 0,0.50397 0,0.75596 -0.25199,0 -0.57778,-0.17818 -0.75596,0 -1.56409,1.56409 2.39015,-0.0611 -0.75595,1.5119 -0.22538,0.11269 -0.57777,-0.17818 -0.75595,0 -0.92074,0.92074 -0.35411,1.68896 -1.51191,2.26786 -0.22538,0.11269 -0.53057,-0.11269 -0.75595,0 -0.31874,0.15937 -0.45944,0.55828 -0.75595,0.75595 -0.46882,0.31255 -1.11348,0.35753 -1.51191,0.75595 -0.17817,0.17818 0.1127,0.53057 0,0.75595 -0.37193,0.74388 -2.65186,2.27994 -3.0238,3.02382 -0.1127,0.22538 0.17818,0.57777 0,0.75595 -0.35636,0.35636 -1.23236,-0.41933 -1.51191,0 -0.69647,1.0447 -0.2695,2.4026 -1.5119,3.02381 -0.29973,0.14986 -2.11332,-0.15455 -2.26786,0 -0.35636,0.35636 0.22538,1.06114 0,1.5119 -0.69586,1.39172 -1.572,0.12019 -2.26786,1.51191 -0.95212,1.90424 2.87118,-0.6542 -1.5119,2.26785 -0.20967,0.13978 -0.57778,-0.17818 -0.75596,0 -1.56409,1.5641 2.39014,-0.0611 -0.75595,1.51191 -0.22538,0.11269 -0.57777,-0.17818 -0.75595,0 -0.17818,0.17818 0.17818,0.57777 0,0.75595 -0.35636,0.35636 -1.15555,-0.35636 -1.51191,0 -0.17817,0.17818 0,0.50397 0,0.75595 -0.25198,0.50397 -0.35752,1.11349 -0.75595,1.51191 -0.17818,0.17818 -0.57777,-0.17818 -0.75595,0 -0.17818,0.17818 0.17818,0.57777 0,0.75595 -1.00794,1.00794 -0.72538,-1.60362 -1.5119,0.75595 -0.15937,0.47811 0.22538,1.06115 0,1.51191 -0.1127,0.22538 -0.53058,-0.11269 -0.755956,0 -0.318738,0.15937 -0.503968,0.50397 -0.755954,0.75595 -0.251984,0.25198 -0.503968,0.50397 -0.755952,0.75595 0,0.25199 0.178181,0.57777 0,0.75596 -0.178178,0.17817 -0.577773,-0.17819 -0.755952,0 -0.178181,0.17817 0.178179,0.57777 0,0.75595 -0.178181,0.17818 -0.577773,-0.17818 -0.755951,0 -0.178181,0.17818 0.178178,0.57777 0,0.75595 -0.178181,0.17818 -0.577774,-0.17818 -0.755955,0 -0.356359,0.35636 0.225383,1.06114 0,1.5119 -0.159369,0.31874 -0.503967,0.50397 -0.755951,0.75596 -0.251984,0.25198 -0.437216,0.59658 -0.755952,0.75595 -0.225382,0.11269 -0.577773,-0.17818 -0.755954,0 -0.377976,0.37798 0.377978,1.88988 0,2.26786 -0.178178,0.17818 -0.530569,-0.1127 -0.755952,0 -0.318738,0.15936 -0.437213,0.59658 -0.755951,0.75595 -0.225383,0.11269 -0.577774,-0.17818 -0.755952,0 -0.178181,0.17818 0.112689,0.53057 0,0.75595 -0.318738,0.63748 -1.193168,0.87443 -1.511906,1.5119 -0.112691,0.22539 0.112692,0.53058 0,0.75596 -0.159369,0.31873 -0.596582,0.43721 -0.755951,0.75595 -0.112692,0.22538 0.112688,0.53057 0,0.75595 -0.15937,0.31874 -0.643263,0.41788 -0.755955,0.75596 -0.159366,0.4781 0.225383,1.06114 0,1.5119 -0.112688,0.22538 -0.530569,-0.11269 -0.755951,0 -3.146092,1.57305 0.80814,-0.0522 -0.755952,1.51191 -1.564092,1.56409 0.06114,-2.39014 -1.511906,0.75595 -0.22538,0.45076 0.225383,1.06114 0,1.5119 -0.159369,0.31874 -0.596582,0.43722 -0.755951,0.75595 -0.112692,0.22538 0.112691,0.53058 0,0.75596 -0.318739,0.63747 -1.116561,0.91888 -1.511906,1.5119 -0.312547,0.46882 -0.577771,0.97737 -0.755952,1.51191 -0.07968,0.23905 0.178181,0.57777 0,0.75595 -0.178178,0.17818 -0.503968,0 -0.755952,0 0,0.25198 0.178179,0.57777 0,0.75595 -0.178181,0.17818 -0.643262,-0.22538 -0.755951,0 -0.231981,0.46396 0.234307,3.31114 0,3.77976 -0.159369,0.31874 -0.596585,0.43722 -0.755954,0.75596 -0.22538,0.45076 0.356359,1.15554 0,1.5119 -0.178179,0.17818 -0.577771,-0.17818 -0.755952,0 -0.178181,0.17818 0.178181,0.57777 0,0.75595 -0.178181,0.17818 -0.577773,-0.17818 -0.755952,0 -0.356359,0.35636 0.22538,1.06114 0,1.51191 -1.729848,3.45969 0.31332,-3.20782 -1.511905,2.26785 -0.138925,0.41678 0.16162,2.86219 0,3.02381 -0.178179,0.17818 -0.577774,-0.17818 -0.755952,0 -0.206846,0.20685 0.205047,2.61372 0,3.02381 -0.159369,0.31874 -0.643263,0.41788 -0.755952,0.75595 -0.239053,0.71717 0,1.51191 0,2.26786 0,1.76389 0,3.52778 0,5.29167 0,1.25992 0,2.51984 0,3.77976 0,0.25199 -0.178181,0.57777 0,0.75595 0.178179,0.17818 0.503968,0 0.755952,0 0.251984,0.25199 0.558279,0.45945 0.755952,0.75595 0.251983,0.50397 0.503967,1.00794 0.755951,1.51191 0,0.25198 -0.112689,0.53057 0,0.75595 0.318738,0.63748 1.11656,0.91889 1.511906,1.51191 0.312547,0.46882 0.577773,0.97736 0.755952,1.5119 0.159369,0.47811 -0.35636,1.15555 0,1.51191 0.356359,0.35636 1.155546,-0.35636 1.511905,0 0.398423,0.39842 0.357529,1.11348 0.755952,1.5119 0.178181,0.17818 0.577773,-0.17818 0.755952,0 0.356359,0.35636 -0.35636,1.15555 0,1.51191 0.178181,0.17817 0.577773,-0.17818 0.755954,0 0.178178,0.17817 -0.139777,0.54628 0,0.75595 -1.865397,2.28863 2.056238,1.30028 2.267857,1.5119 0.178179,0.17818 -0.178181,0.57778 0,0.75596 0.398421,0.39842 1.113481,0.35753 1.511904,0.75595 0.178181,0.17818 -0.178179,0.57777 0,0.75595 0.178181,0.17818 0.577773,-0.17818 0.755951,0 1.564093,1.56409 -2.39014,-0.0611 0.755955,1.5119 0.22538,0.1127 0.57777,-0.17817 0.755951,0 1.564092,1.5641 -2.39014,-0.0611 0.755952,1.51191 0.225382,0.11269 0.577773,-0.17818 0.755954,0 0.178178,0.17818 -0.178181,0.57777 0,0.75595 0.178178,0.17818 0.516898,-0.0797 0.755952,0 0.534537,0.17818 0.977365,0.57778 1.511903,0.75595 0.239054,0.0797 0.530572,-0.11269 0.755954,0 0.318736,0.15937 0.459444,0.55829 0.755952,0.75596 0.46882,0.31254 1.06114,0.41788 1.511906,0.75595 0.570174,0.42763 0.918884,1.11656 1.511903,1.51191 0.259974,0.17331 2.102132,-0.16573 2.267862,0 0.17818,0.17817 -0.22539,0.64326 0,0.75595 0.27603,0.13801 3.63262,-0.14714 3.77976,0 0.17818,0.17818 -0.17818,0.57777 0,0.75595 0.35636,0.35636 1.06114,-0.22538 1.5119,0 0.31874,0.15937 0.50397,0.50397 0.75595,0.75595 0.50397,0 1.0338,-0.15937 1.51191,0 0.33807,0.11269 0.45944,0.55828 0.75595,0.75595 0.46882,0.31255 0.97737,0.57778 1.51191,0.75596 0.41677,0.13892 2.86219,-0.16162 3.02381,0 0.17817,0.17817 -0.17818,0.57777 0,0.75595 0.0304,0.0304 2.74619,0 3.02381,0 1.5119,0 3.0238,0 4.53571,0 0.34045,0 2.03779,0.11503 2.26786,0 0.31873,-0.15937 0.43721,-0.59658 0.75595,-0.75595 0.22538,-0.1127 0.53057,0.11269 0.75595,0 0.31874,-0.15937 0.43722,-0.59659 0.75595,-0.75596 0.45077,-0.22538 1.15555,0.35636 1.51191,0 0.17818,-0.17818 -0.22538,-0.64326 0,-0.75595 0.45076,-0.22538 1.06114,0.22538 1.5119,0 0.22538,-0.11269 -0.17818,-0.57777 0,-0.75595 0.0243,-0.0243 2.08452,0 2.26786,0"
       id="path3713"
       inkscape:connector-curvature="0" />
  </g>
</svg>
