<?xml version="1.0" encoding="UTF-8" standalone="no"?>
<!-- Created with Inkscape (http://www.inkscape.org/) -->

<svg
   xmlns:dc="http://purl.org/dc/elements/1.1/"
   xmlns:cc="http://creativecommons.org/ns#"
   xmlns:rdf="http://www.w3.org/1999/02/22-rdf-syntax-ns#"
   xmlns:svg="http://www.w3.org/2000/svg"
   xmlns="http://www.w3.org/2000/svg"
   xmlns:sodipodi="http://sodipodi.sourceforge.net/DTD/sodipodi-0.dtd"
   xmlns:inkscape="http://www.inkscape.org/namespaces/inkscape"
   width="210mm"
   height="297mm"
   viewBox="0 0 210 297"
   version="1.1"
   id="svg8"
   inkscape:version="0.92.3 (2405546, 2018-03-11)"
   sodipodi:docname="drawing.svg">
  <defs
     id="defs2" />
  <sodipodi:namedview
     id="base"
     pagecolor="#ffffff"
     bordercolor="#666666"
     borderopacity="1.0"
     inkscape:pageopacity="0.0"
     inkscape:pageshadow="2"
     inkscape:zoom="0.35"
     inkscape:cx="400"
     inkscape:cy="560"
     inkscape:document-units="mm"
     inkscape:current-layer="layer1"
     showgrid="false"
     inkscape:window-width="1920"
     inkscape:window-height="1017"
     inkscape:window-x="1912"
     inkscape:window-y="-8"
     inkscape:window-maximized="1" />
  <metadata
     id="metadata5">
    <rdf:RDF>
      <cc:Work
         rdf:about="">
        <dc:format>image/svg+xml</dc:format>
        <dc:type
           rdf:resource="http://purl.org/dc/dcmitype/StillImage" />
        <dc:title></dc:title>
      </cc:Work>
    </rdf:RDF>
  </metadata>
  <g
     inkscape:label="Layer 1"
     inkscape:groupmode="layer"
     id="layer1">
    <path
       style="fill:none;stroke:#000000;stroke-width:0.34115702px;stroke-linecap:butt;stroke-linejoin:miter;stroke-opacity:1"
       d="m 10.584832,24.610668 c 2.393959,-0.264584 4.84828,-0.351618 7.181883,-0.793753 0.542553,-0.102795 0.727488,-0.586197 1.196984,-0.793754 0.742335,-0.328175 1.547569,-0.606664 2.393961,-0.793752 0.757039,-0.167338 1.680223,0.23665 2.393962,0 1.286715,-0.426629 2.255244,-1.233209 3.590946,-1.587507 0.740909,-0.196527 1.595972,0 2.393959,0 0.398994,0 0.914851,0.187091 1.196981,0 0.282133,-0.187088 -0.28213,-0.606661 0,-0.793751 0.282133,-0.187088 0.818463,0.08366 1.196983,0 0.846392,-0.187088 1.565596,-0.574026 2.39396,-0.793752 1.171488,-0.310741 2.419457,-0.483015 3.590945,-0.793752 0.828362,-0.219725 1.547567,-0.606664 2.393964,-0.793755 0.757034,-0.167338 1.680218,0.236653 2.39396,0 0.504692,-0.167338 0.661674,-0.675425 1.196983,-0.793752 0.814304,-0.179997 5.350218,0.210438 5.984905,0 0.504692,-0.167337 0.692291,-0.626413 1.196978,-0.793751 0.957589,-0.317503 2.633362,0.317498 3.590945,0 0.356873,-0.118326 -0.282129,-0.606664 0,-0.793755 0.282133,-0.187089 0.797987,0 1.19698,0 0.473182,0 5.473697,0.169499 5.984907,0 0.504694,-0.167336 0.661676,-0.675426 1.196981,-0.793752 0.643505,-0.142243 3.774501,0 4.787924,0 3.19195,0 6.383901,0 9.575851,0 3.191947,0 6.383897,0 9.575849,0 0.539066,0 3.22666,-0.120782 3.590944,0 0.504688,0.167338 0.692287,0.626416 1.196979,0.793752 0.713741,0.236652 1.829702,-0.37418 2.393965,0 0.282129,0.187091 -0.356873,0.675429 0,0.793755 0.752325,0.249446 4.035592,-0.249447 4.787923,0 1.009386,0.334673 1.323346,1.350853 2.393966,1.587503 0.75703,0.167338 1.68022,-0.23665 2.39395,0 0.71376,0.236653 -0.56426,1.213328 0,1.587507 0.28214,0.187088 0.84011,-0.118326 1.19698,0 3.96989,2.632546 -1.12851,-0.374179 2.39397,0.793752 1.00938,0.334676 1.45498,1.172392 2.39396,1.587507 0.74235,0.328175 1.65163,0.465575 2.39397,0.793751 0.93899,0.415114 1.38458,1.25283 2.39395,1.587506 0.35689,0.118324 0.91486,-0.187091 1.19699,0 0.28214,0.187089 -0.28213,0.606662 0,0.793753 0.28214,0.187088 0.91485,-0.187091 1.19698,0 0.28213,0.187088 -0.17843,0.557102 0,0.793752 0.25235,0.334677 0.79799,0.529167 1.19698,0.793751 0.39899,0.264585 0.6923,0.626417 1.19697,0.793755 0.35688,0.118324 0.91487,-0.187091 1.197,0 0.63086,0.418342 0.70209,1.095241 1.19698,1.587505 0.31299,0.311336 0.94463,0.459078 1.19698,0.793753 0.17843,0.236651 -0.28214,0.606661 0,0.793752 0.56426,0.37418 1.8297,-0.374178 2.39396,0 0.56425,0.37418 -0.56426,1.213325 0,1.587505 0.81314,0.539218 2.3805,-0.811597 3.59093,0.793754 0.35688,0.473303 -0.35686,1.114201 0,1.587504 2.49079,3.30341 -0.0827,-0.848551 2.39398,0.793754 0.28213,0.187088 -0.17844,0.557099 0,0.793752 0.25235,0.334676 0.94463,0.459075 1.19698,0.793753 0.17844,0.236651 -0.28214,0.606663 0,0.793751 0.28213,0.187091 0.8401,-0.118323 1.19697,0 4.98155,1.651707 -1.27961,-0.05479 1.19698,1.587506 0.28214,0.187088 0.91487,-0.18709 1.197,0 0.63085,0.418346 0.45464,1.259328 1.19697,1.587507 6.7829,0 0.39899,-0.52917 2.39396,0.793753 0.28213,0.187087 0.91486,-0.187091 1.19699,0 0.56426,0.374178 -0.56426,1.213324 0,1.587503 0.28213,0.187091 0.91484,-0.187089 1.19698,0 2.47659,1.642303 -3.78457,-0.06419 1.19697,1.587507 1.65107,0.547434 1.07067,-0.961279 2.39398,0.793751 0.17843,0.236653 -0.17845,0.557103 0,0.793755 0.25235,0.334674 0.79797,0.529168 1.19697,0.793752 0.39899,0.264584 0.69228,0.626414 1.19697,0.793753 0.35688,0.118325 1.01855,-0.23665 1.19699,0 0.35686,0.473301 -0.35687,1.114203 0,1.587506 0.17843,0.236649 0.91484,-0.187091 1.19699,0 0.28213,0.187088 -0.1262,0.542745 0,0.793751 0.28213,0.561267 0.56612,1.169162 1.19698,1.587506 0.28213,0.187089 0.91485,-0.18709 1.19697,0 0.24471,0.162271 -0.23728,2.066541 0,2.381256 0.50469,0.669354 1.88927,0.918154 2.39396,1.587507 0.17845,0.23665 -0.28211,0.606664 0,0.793753 0.28214,0.187091 0.91486,-0.187089 1.19699,0 0.28214,0.187091 -0.28213,0.606663 0,0.793754 0.28214,0.187087 0.91485,-0.187091 1.19697,0 0.35417,0.234856 -0.3707,2.683347 0,3.175011 0.25235,0.334672 1.01855,0.438775 1.19699,0.79375 0.21451,0.426728 0,2.502981 0,3.175012 0,2.381257 0,4.762517 0,7.143775 0,0.264584 0,0.529167 0,0.793752 0,0.264584 0.28213,0.606664 0,0.793751 -0.28213,0.187091 -0.91485,-0.187087 -1.19699,0 -0.2447,0.162274 0.2373,2.066544 0,2.38126 -0.25234,0.334676 -0.94463,0.459078 -1.19697,0.79375 -0.17844,0.236654 0.28214,0.606665 0,0.793756 -0.28213,0.187088 -0.91485,-0.187091 -1.19699,0 -0.56426,0.374178 0.35689,1.1142 0,1.587504 -0.25235,0.334675 -0.94463,0.459078 -1.19698,0.793753 -0.23729,0.314716 0.24472,2.218986 0,2.381257 -0.56426,0.374178 -1.82969,-0.374179 -2.39395,0 -0.28214,0.18709 0.17844,0.557102 0,0.793754 -0.5047,0.66935 -1.76797,0.964832 -2.39397,1.587505 -0.14869,0.147854 -2.31726,3.124148 -2.39396,3.17501 -0.28213,0.187091 -0.91486,-0.187089 -1.19697,0 -0.28216,0.187091 0.28211,0.606664 0,0.793755 -0.28216,0.187087 -0.91486,-0.187091 -1.197,0 -0.28213,0.187087 0.28214,0.60666 0,0.79375 -2.47659,1.642304 0.0968,-2.509653 -2.39395,0.793754 -0.35687,0.473299 0.56426,1.213331 0,1.5875 -0.28214,0.18709 -0.91485,-0.187089 -1.19698,0 -0.28213,0.18709 0,0.529171 0,0.793762 -0.39901,0 -0.91486,-0.18709 -1.19699,0 -2.4766,1.642299 3.78457,-0.06415 -1.19699,1.5875 -0.35686,0.118325 -0.91484,-0.18709 -1.19697,0 -1.4579,0.966779 -0.5607,1.773414 -2.39397,2.38126 -0.35686,0.118325 -0.8401,-0.118324 -1.19698,0 -0.5047,0.167339 -0.72748,0.586197 -1.19697,0.793751 -0.74233,0.328178 -1.7631,0.375408 -2.39397,0.79375 -0.28212,0.18709 0.17845,0.5571 0,0.79375 -0.58893,0.781072 -4.19898,2.393949 -4.78792,3.175019 -0.17845,0.23665 0.28214,0.60667 0,0.79375 -0.56426,0.37418 -1.95133,-0.44029 -2.39396,0 -1.1028,1.09694 -0.42673,2.52274 -2.39396,3.17502 -0.47459,0.15735 -3.34625,-0.16228 -3.59095,0 -0.56426,0.37418 0.35687,1.11419 0,1.58749 -1.10183,1.46131 -2.48912,0.12621 -3.59095,1.58752 -1.50759,1.99945 4.54625,-0.68691 -2.39395,2.38125 -0.33199,0.14677 -0.91486,-0.18709 -1.19699,0 -2.4766,1.64231 3.78456,-0.0641 -1.19698,1.5875 -0.35687,0.11833 -0.91485,-0.18708 -1.19698,0 -0.28213,0.1871 0.28213,0.60667 0,0.79376 -0.56426,0.37417 -1.82971,-0.37418 -2.39397,0 -0.28212,0.18709 0,0.52917 0,0.79375 -0.39899,0.52917 -0.5661,1.16917 -1.19698,1.58751 -0.28213,0.18709 -0.91484,-0.18709 -1.19697,0 -0.28213,0.18709 0.28213,0.60666 0,0.79375 -1.59598,1.05834 -1.14858,-1.68381 -2.39396,0.79375 -0.25235,0.50201 0.35687,1.11421 0,1.58751 -0.17845,0.23665 -0.840124,-0.11833 -1.196986,0 -0.504692,0.16733 -0.797987,0.52917 -1.196983,0.79375 -0.398994,0.26458 -0.797987,0.52918 -1.196981,0.79375 0,0.26459 0.282134,0.60666 0,0.79376 -0.282129,0.18708 -0.914851,-0.1871 -1.196981,0 -0.282133,0.18708 0.28213,0.60666 0,0.79376 -0.282133,0.18708 -0.914849,-0.1871 -1.196978,0 -0.282133,0.18708 0.282129,0.60665 0,0.79374 -0.282133,0.18709 -0.914852,-0.18709 -1.196985,0 -0.564263,0.37418 0.356873,1.1142 0,1.5875 -0.252346,0.33468 -0.797986,0.52918 -1.19698,0.79376 -0.398993,0.26458 -0.692291,0.62642 -1.196979,0.79375 -0.356873,0.11833 -0.914851,-0.18709 -1.196985,0 -0.59849,0.39688 0.598494,1.98438 0,2.38126 -0.282128,0.18709 -0.840107,-0.11834 -1.196981,0 -0.504691,0.16734 -0.692286,0.62642 -1.196978,0.79375 -0.356873,0.11833 -0.914852,-0.18708 -1.196981,0 -0.282133,0.1871 0.178434,0.5571 0,0.79375 -0.504693,0.66936 -1.889272,0.91816 -2.393963,1.58751 -0.178437,0.23666 0.178436,0.55711 0,0.79376 -0.252348,0.33466 -0.944634,0.45907 -1.19698,0.79375 -0.178438,0.23665 0.178431,0.55709 0,0.79374 -0.252348,0.33468 -1.018548,0.43878 -1.196985,0.79376 -0.252342,0.50201 0.356873,1.11421 0,1.58751 -0.178431,0.23665 -0.840108,-0.11833 -1.196979,0 -4.981547,1.6517 1.279615,-0.0549 -1.19698,1.58751 -2.476597,1.6423 0.09681,-2.50966 -2.393966,0.79375 -0.356867,0.47329 0.356874,1.1142 0,1.5875 -0.252345,0.33468 -0.944632,0.45908 -1.196978,0.79375 -0.178438,0.23665 0.178436,0.55711 0,0.79376 -0.504694,0.66934 -1.767971,0.96483 -2.393964,1.5875 -0.49489,0.49226 -0.914847,1.02625 -1.19698,1.58751 -0.126167,0.25101 0.282133,0.60666 0,0.79375 -0.282129,0.18709 -0.797987,0 -1.196981,0 0,0.26459 0.28213,0.60667 0,0.79375 -0.282134,0.18709 -1.018547,-0.23665 -1.19698,0 -0.36732,0.48716 0.371004,3.47671 0,3.96876 -0.252346,0.33468 -0.944637,0.45909 -1.196983,0.79376 -0.356868,0.4733 0.564262,1.21333 0,1.5875 -0.28213,0.1871 -0.914847,-0.18709 -1.19698,0 -0.282134,0.1871 0.282133,0.60666 0,0.79376 -0.282134,0.18708 -0.914851,-0.1871 -1.196981,0 -0.564261,0.37417 0.356868,1.1142 0,1.58751 -2.739055,3.63269 0.496114,-3.36823 -2.393963,2.38124 -0.219975,0.43763 0.255911,3.00531 0,3.17502 -0.28213,0.18708 -0.914852,-0.18709 -1.196981,0 -0.327521,0.21719 0.324674,2.74441 0,3.17501 -0.252345,0.33468 -1.018547,0.43877 -1.19698,0.79375 -0.378519,0.75303 0,1.58751 0,2.38126 0,1.85209 0,3.70418 0,5.55627 0,1.32292 0,2.64584 0,3.96877 0,0.26458 -0.282133,0.60665 0,0.79375 0.282131,0.18708 0.797988,0 1.19698,0 0.398994,0.26459 0.883984,0.48242 1.196981,0.79374 0.398992,0.52917 0.797986,1.05835 1.19698,1.58751 0,0.26458 -0.178433,0.5571 0,0.79375 0.504692,0.66936 1.76797,0.96484 2.393964,1.58752 0.49489,0.49226 0.91485,1.02623 1.19698,1.58749 0.252346,0.50202 -0.564263,1.21334 0,1.58752 0.564262,0.37417 1.829701,-0.37418 2.393963,0 0.630867,0.41834 0.566114,1.16915 1.196981,1.5875 0.282133,0.18708 0.914849,-0.18709 1.19698,0 0.564261,0.37418 -0.564263,1.21333 0,1.58751 0.282133,0.18708 0.91485,-0.18709 1.196983,0 0.282129,0.18708 -0.221323,0.57359 0,0.79374 -2.953684,2.40308 3.255864,1.3653 3.590944,1.58751 0.28213,0.18709 -0.282134,0.60667 0,0.79376 0.630863,0.41834 1.763095,0.37541 2.393961,0.79375 0.282133,0.18708 -0.282131,0.60666 0,0.79375 0.282133,0.18709 0.91485,-0.18709 1.196979,0 2.476597,1.6423 -3.784567,-0.0642 1.196985,1.5875 0.356869,0.11833 0.914846,-0.18708 1.19698,0 2.476595,1.64232 -3.784568,-0.0642 1.196979,1.58751 0.356872,0.11832 0.914851,-0.18708 1.196984,0 0.282129,0.18709 -0.282133,0.60666 0,0.79375 0.282129,0.1871 0.81846,-0.0837 1.196981,0 0.84639,0.1871 1.547567,0.60667 2.393959,0.79375 0.378521,0.0837 0.840112,-0.11832 1.196985,0 0.504688,0.16734 0.727486,0.58621 1.196979,0.79377 0.742334,0.32816 1.680218,0.43877 2.393965,0.79375 0.902818,0.44901 1.454969,1.17238 2.393959,1.5875 0.411645,0.18198 3.32853,-0.17402 3.59095,0 0.28213,0.18708 -0.35688,0.67543 0,0.79375 0.43707,0.14492 5.75192,-0.15449 5.9849,0 0.28214,0.1871 -0.28213,0.60666 0,0.79375 0.56427,0.37418 1.68022,-0.23665 2.39396,0 0.50469,0.16734 0.79799,0.52918 1.19698,0.79376 0.79799,0 1.63692,-0.16734 2.39397,0 0.5353,0.11832 0.72748,0.58619 1.19697,0.79375 0.74234,0.32817 1.54758,0.60667 2.39397,0.79376 0.65992,0.14586 4.53202,-0.16971 4.78793,0 0.28212,0.18707 -0.28213,0.60666 0,0.79374 0.0482,0.032 4.34835,0 4.78792,0 2.39396,0 4.78792,0 7.18189,0 0.53906,0 3.22665,0.12078 3.59095,0 0.50467,-0.16734 0.69228,-0.6264 1.19697,-0.79374 0.35687,-0.11834 0.84011,0.11832 1.19697,0 0.5047,-0.16735 0.69231,-0.62643 1.19699,-0.79376 0.71374,-0.23665 1.8297,0.37417 2.39397,0 0.28213,-0.1871 -0.35687,-0.67543 0,-0.79375 0.71373,-0.23665 1.68021,0.23665 2.39395,0 0.35687,-0.11833 -0.28213,-0.60666 0,-0.79376 0.0384,-0.0255 3.30065,0 3.59094,0 1.99497,1.58752 3.98994,3.17501 5.98491,4.76252 0.399,0 0.91487,-0.18708 1.197,0 0.28212,0.1871 -0.28213,0.60666 0,0.79376 0.28212,0.18709 0.84011,-0.11833 1.19697,0 0.3178,0.10536 3.43204,2.1705 3.59096,2.38126 0.17842,0.23665 -0.17846,0.55709 0,0.79374 0.25232,0.33469 0.94462,0.45908 1.19697,0.79375 0.17844,0.23665 -0.17844,0.55711 0,0.79376 0.25234,0.33468 0.94462,0.45908 1.19697,0.79375 0.35688,0.47331 -0.56425,1.21333 0,1.58751 0.28213,0.18709 0.91485,-0.18709 1.19698,0 0.28214,0.18709 -0.28213,0.60666 0,0.79375 0.28214,0.18709 0.91487,-0.18709 1.197,0 0.28211,0.18709 -0.28213,0.60666 0,0.79375 0.28211,0.18709 0.91484,-0.18709 1.19697,0 0.56427,0.37418 -0.35686,1.11421 0,1.58751 0.25235,0.33468 0.94463,0.45907 1.19698,0.79375 0.35687,0.4733 -0.56426,1.21333 0,1.58751 0.28213,0.18709 0.91485,-0.18709 1.19698,0 0.28213,0.18709 -0.28213,0.60666 0,0.79376 0.28213,0.18708 0.91486,-0.1871 1.19697,0 0.28214,0.18708 -0.28211,0.60665 0,0.79374 0.28214,0.18709 0.91486,-0.18709 1.197,0 1.60874,1.0668 -1.60874,0.5207 0,1.58751 0.28213,0.1871 0.8401,-0.11833 1.19697,0 4.98155,1.6517 -1.27961,-0.0548 1.19698,1.5875 0.28214,0.18709 0.91484,-0.18709 1.19698,0 0.28804,0.19101 -0.28802,2.984 0,3.17501 0.28213,0.1871 0.91486,-0.18708 1.19699,0 0.28214,0.1871 -0.28213,0.60667 0,0.79375 0.28214,0.1871 0.91485,-0.18708 1.19698,0 0.56426,0.37418 -0.35687,1.11421 0,1.58752 2.49078,3.3034 -0.0827,-0.84855 2.39395,0.79375 0.28214,0.18708 -0.17842,0.5571 0,0.79375 0.5047,0.66935 1.88928,0.91815 2.39397,1.5875 0.17844,0.23665 -0.28212,0.60667 0,0.79376 0.28213,0.18709 0.798,0 1.19699,0"
       id="path3713"
       inkscape:connector-curvature="0" />
  </g>
</svg>
