<?xml version="1.0" encoding="UTF-8" standalone="no"?>
<!-- Created with Inkscape (http://www.inkscape.org/) -->

<svg
   xmlns:dc="http://purl.org/dc/elements/1.1/"
   xmlns:cc="http://creativecommons.org/ns#"
   xmlns:rdf="http://www.w3.org/1999/02/22-rdf-syntax-ns#"
   xmlns:svg="http://www.w3.org/2000/svg"
   xmlns="http://www.w3.org/2000/svg"
   xmlns:sodipodi="http://sodipodi.sourceforge.net/DTD/sodipodi-0.dtd"
   xmlns:inkscape="http://www.inkscape.org/namespaces/inkscape"
   width="210mm"
   height="297mm"
   viewBox="0 0 210 297"
   version="1.1"
   id="svg8"
   inkscape:version="0.92.3 (2405546, 2018-03-11)"
   sodipodi:docname="drawing.svg">
  <defs
     id="defs2">
    <inkscape:perspective
       sodipodi:type="inkscape:persp3d"
       inkscape:vp_x="-59.03307 : -0.9901628 : 1"
       inkscape:vp_y="0 : 254.55868 : 0"
       inkscape:vp_z="203.95035 : -0.9901628 : 1"
       inkscape:persp3d-origin="72.45864 : -13.590818 : 1"
       id="perspective3829" />
  </defs>
  <sodipodi:namedview
     id="base"
     pagecolor="#ffffff"
     bordercolor="#666666"
     borderopacity="1.0"
     inkscape:pageopacity="0.0"
     inkscape:pageshadow="2"
     inkscape:zoom="0.45254834"
     inkscape:cx="642.11177"
     inkscape:cy="325.34213"
     inkscape:document-units="mm"
     inkscape:current-layer="layer1"
     showgrid="false"
     inkscape:window-width="1920"
     inkscape:window-height="1017"
     inkscape:window-x="1912"
     inkscape:window-y="-8"
     inkscape:window-maximized="1" />
  <metadata
     id="metadata5">
    <rdf:RDF>
      <cc:Work
         rdf:about="">
        <dc:format>image/svg+xml</dc:format>
        <dc:type
           rdf:resource="http://purl.org/dc/dcmitype/StillImage" />
        <dc:title></dc:title>
      </cc:Work>
    </rdf:RDF>
  </metadata>
  <g
     inkscape:label="Layer 1"
     inkscape:groupmode="layer"
     id="layer1">
    <path
       style="fill:none;stroke:#000000;stroke-width:0.1891312px;stroke-linecap:butt;stroke-linejoin:miter;stroke-opacity:1"
       d="m -15.606613,49.66464 c 2.026848,-0.09605 4.104802,-0.12764 6.080549,-0.288137 0.459353,-0.03731 0.615929,-0.212793 1.013428,-0.288137 0.628499,-0.119129 1.310251,-0.220223 2.026849,-0.288137 0.640948,-0.06074 1.422563,0.08591 2.026851,0 1.089399,-0.154868 1.909405,-0.447661 3.040278,-0.576273 0.627291,-0.07134 1.351231,0 2.026848,0 0.337809,0 0.774559,0.06792 1.013425,0 0.238868,-0.06791 -0.238866,-0.220222 0,-0.288136 0.238868,-0.06791 0.692953,0.03037 1.013427,0 0.716599,-0.06791 1.325514,-0.208375 2.026849,-0.288137 0.991841,-0.112801 2.048436,-0.175337 3.040277,-0.288136 0.701334,-0.07976 1.310249,-0.220223 2.026852,-0.288138 0.640944,-0.06074 1.422559,0.08591 2.026849,0 0.427298,-0.06074 0.560207,-0.245183 1.013427,-0.288136 0.689431,-0.06534 4.529767,0.07639 5.067126,0 0.427298,-0.06074 0.586129,-0.227392 1.013423,-0.288136 0.810743,-0.115255 2.229538,0.115253 3.040277,0 0.302147,-0.04295 -0.238865,-0.220223 0,-0.288138 0.238868,-0.06791 0.675616,0 1.013424,0 0.40062,0 4.634311,0.06153 5.067128,0 0.4273,-0.06074 0.560209,-0.245183 1.013425,-0.288136 0.544824,-0.05164 3.195685,0 4.053701,0 2.702468,0 5.404936,0 8.107404,0 2.702465,0 5.404933,0 8.107403,0 0.4564,0 2.731855,-0.04385 3.040276,0 0.427295,0.06074 0.586126,0.227392 1.013424,0.288136 0.604289,0.08591 1.549119,-0.135829 2.026853,0 0.238864,0.06791 -0.302147,0.245185 0,0.288138 0.636956,0.09055 3.416738,-0.09055 4.0537,0 0.854597,0.121488 1.120412,0.490367 2.026853,0.576272 0.640941,0.06075 1.42256,-0.08591 2.026841,0 0.604305,0.08591 -0.477732,0.440445 0,0.576274 0.238874,0.06791 0.71128,-0.04295 1.013424,0 3.361112,0.955629 -0.955454,-0.135829 2.026857,0.288137 0.854593,0.121489 1.231861,0.425584 2.026849,0.576273 0.628511,0.11913 1.398354,0.169007 2.026857,0.288136 0.794997,0.150689 1.172256,0.454785 2.02684,0.576274 0.302162,0.04295 0.774568,-0.06791 1.013433,0 0.238874,0.06791 -0.238865,0.220222 0,0.288137 0.238874,0.06791 0.774556,-0.06791 1.013426,0 0.23886,0.06791 -0.15107,0.202231 0,0.288136 0.21365,0.12149 0.67562,0.192091 1.01342,0.288136 0.33781,0.09605 0.58614,0.227393 1.01342,0.288138 0.30215,0.04295 0.77457,-0.06791 1.01344,0 0.53412,0.15186 0.59443,0.397578 1.01342,0.576273 0.265,0.113017 0.79978,0.166648 1.01343,0.288137 0.15107,0.0859 -0.23888,0.220221 0,0.288136 0.47773,0.135829 1.54912,-0.135829 2.02685,0 0.47772,0.135829 -0.47773,0.440444 0,0.576273 0.68844,0.195739 2.01545,-0.294614 3.04026,0.288137 0.30215,0.171812 -0.30213,0.404461 0,0.576273 2.10883,1.199156 -0.07,-0.308029 2.02687,0.288137 0.23886,0.06791 -0.15108,0.20223 0,0.288137 0.21365,0.121489 0.79977,0.166646 1.01342,0.288136 0.15108,0.08591 -0.23887,0.220222 0,0.288136 0.23887,0.06791 0.71127,-0.04295 1.01342,0 4.21763,0.599579 -1.08339,-0.01989 1.01342,0.576274 0.23888,0.06791 0.77458,-0.06791 1.01344,0 0.53411,0.151862 0.38493,0.457143 1.01342,0.576274 5.74275,0 0.3378,-0.192092 2.02685,0.288137 0.23886,0.06791 0.77457,-0.06792 1.01343,0 0.47773,0.135828 -0.47773,0.440443 0,0.576272 0.23887,0.06792 0.77455,-0.06791 1.01343,0 2.0968,0.596165 -3.20421,-0.0233 1.01341,0.576274 1.39788,0.198721 0.90649,-0.34895 2.02687,0.288136 0.15107,0.08591 -0.15109,0.202231 0,0.288137 0.21365,0.121489 0.6756,0.192091 1.01341,0.288137 0.33781,0.09605 0.58612,0.227392 1.01342,0.288137 0.30215,0.04295 0.86236,-0.08591 1.01343,0 0.30214,0.17181 -0.30214,0.404461 0,0.576273 0.15107,0.08591 0.77455,-0.06791 1.01343,0 0.23887,0.06791 -0.10684,0.19702 0,0.288136 0.23887,0.203743 0.47931,0.424412 1.01343,0.576274 0.23886,0.06791 0.77456,-0.06791 1.01341,0 0.20719,0.05891 -0.20089,0.750165 0,0.864409 0.4273,0.242979 1.59956,0.333295 2.02685,0.576274 0.15109,0.08591 -0.23885,0.220222 0,0.288136 0.23888,0.06792 0.77457,-0.06791 1.01344,0 0.23887,0.06792 -0.23887,0.220222 0,0.288138 0.23887,0.06791 0.77456,-0.06792 1.01341,0 0.29986,0.08525 -0.31385,0.974069 0,1.152546 0.21365,0.121488 0.86236,0.159278 1.01344,0.288136 0.18161,0.154905 0,0.908596 0,1.152547 0,0.864409 0,1.72882 0,2.59323 0,0.09605 0,0.192091 0,0.288136 0,0.09605 0.23886,0.220223 0,0.288136 -0.23887,0.06792 -0.77456,-0.06791 -1.01344,0 -0.20717,0.05891 0.20091,0.750167 0,0.864411 -0.21364,0.121489 -0.79977,0.166648 -1.01341,0.288136 -0.15108,0.08591 0.23887,0.220223 0,0.288138 -0.23887,0.06791 -0.77456,-0.06791 -1.01344,0 -0.47773,0.135828 0.30216,0.40446 0,0.576272 -0.21365,0.121489 -0.79977,0.166648 -1.01342,0.288137 -0.2009,0.114244 0.20719,0.805504 0,0.86441 -0.47773,0.135828 -1.54911,-0.135829 -2.02684,0 -0.23888,0.06791 0.15108,0.202231 0,0.288137 -0.42731,0.242978 -1.49685,0.350239 -2.02686,0.576273 -0.12589,0.05367 -1.96191,1.134083 -2.02685,1.152546 -0.23886,0.06791 -0.77456,-0.06791 -1.01341,0 -0.23889,0.06791 0.23885,0.220223 0,0.288138 -0.23889,0.06791 -0.77457,-0.06791 -1.01344,0 -0.23887,0.06791 0.23887,0.220221 0,0.288135 -2.09681,0.596166 0.0819,-0.911018 -2.02684,0.288138 -0.30215,0.17181 0.47773,0.440446 0,0.576271 -0.23888,0.06791 -0.77456,-0.06791 -1.01343,0 -0.23886,0.06791 0,0.192092 0,0.28814 -0.33782,0 -0.77457,-0.06792 -1.01343,0 -2.09682,0.596164 3.20421,-0.02329 -1.01343,0.576271 -0.30214,0.04295 -0.77455,-0.06791 -1.01342,0 -1.23433,0.350946 -0.47472,0.643759 -2.02686,0.864411 -0.30213,0.04295 -0.71127,-0.04295 -1.01342,0 -0.42731,0.06075 -0.61592,0.212793 -1.01342,0.288136 -0.62849,0.11913 -1.49273,0.136275 -2.02686,0.288136 -0.23885,0.06791 0.15109,0.20223 0,0.288135 -0.49861,0.283534 -3.55507,0.869017 -4.05369,1.15255 -0.15109,0.08591 0.23887,0.220225 0,0.288136 -0.47773,0.135829 -1.6521,-0.159828 -2.02685,0 -0.93369,0.398195 -0.36129,0.915768 -2.02685,1.15255 -0.40181,0.05712 -2.83311,-0.05891 -3.04028,0 -0.47773,0.135829 0.30214,0.404457 0,0.576267 -0.932867,0.530464 -2.107417,0.04582 -3.040283,0.576279 -1.276403,0.725811 3.849083,-0.249352 -2.02684,0.864407 -0.28108,0.05328 -0.774567,-0.06791 -1.013433,0 -2.096816,0.596168 3.204202,-0.02327 -1.013424,0.576271 -0.302145,0.04295 -0.774559,-0.06791 -1.013425,0 -0.238865,0.06792 0.238866,0.220225 0,0.28814 -0.477731,0.135825 -1.549126,-0.13583 -2.026857,0 -0.238857,0.06791 0,0.192091 0,0.288135 -0.337805,0.192092 -0.479289,0.424415 -1.013424,0.576275 -0.238866,0.06791 -0.774551,-0.06791 -1.013416,0 -0.238866,0.06791 0.238865,0.220221 0,0.288136 -1.351238,0.384183 -0.972447,-0.611233 -2.026849,0.288135 -0.213652,0.182233 0.302144,0.404465 0,0.576275 -0.151085,0.08591 -0.711292,-0.04295 -1.013429,0 -0.427298,0.06074 -0.675617,0.192092 -1.013427,0.288136 -0.337809,0.09604 -0.675617,0.192095 -1.013426,0.288136 0,0.09605 0.23887,0.220221 0,0.288139 -0.238864,0.06791 -0.774559,-0.06792 -1.013425,0 -0.238868,0.06791 0.238866,0.220221 0,0.288139 -0.238868,0.06791 -0.774558,-0.06792 -1.013422,0 -0.238869,0.06791 0.238864,0.220218 0,0.288132 -0.238869,0.06792 -0.774561,-0.06791 -1.013429,0 -0.477734,0.13583 0.302147,0.404461 0,0.576272 -0.213649,0.12149 -0.675616,0.192095 -1.013424,0.288139 -0.337808,0.09604 -0.586129,0.227394 -1.013424,0.288136 -0.302147,0.04295 -0.774559,-0.06791 -1.013428,0 -0.506713,0.144069 0.506715,0.720341 0,0.86441 -0.238864,0.06791 -0.711278,-0.04296 -1.013426,0 -0.427297,0.06075 -0.586124,0.227394 -1.013422,0.288136 -0.302147,0.04295 -0.774561,-0.06791 -1.013426,0 -0.238868,0.06792 0.151072,0.20223 0,0.288136 -0.427298,0.242981 -1.599554,0.333297 -2.026851,0.576275 -0.151074,0.08591 0.151073,0.202234 0,0.288139 -0.21365,0.121483 -0.799775,0.166645 -1.013424,0.288136 -0.151075,0.0859 0.151069,0.202226 0,0.288132 -0.213651,0.12149 -0.862355,0.159279 -1.013429,0.288139 -0.213645,0.182232 0.302147,0.404464 0,0.576275 -0.151069,0.08591 -0.711278,-0.04295 -1.013423,0 -4.217632,0.599576 1.083387,-0.01993 -1.013425,0.576275 -2.096813,0.596164 0.08197,-0.911021 -2.026853,0.288136 -0.302142,0.171807 0.302147,0.40446 0,0.576271 -0.213649,0.121491 -0.799774,0.166649 -1.013423,0.288136 -0.151075,0.0859 0.151073,0.202234 0,0.288139 -0.4273,0.242974 -1.496855,0.350239 -2.026852,0.576271 -0.418999,0.178693 -0.774556,0.372535 -1.013425,0.576275 -0.106819,0.09112 0.238869,0.220221 0,0.288136 -0.238864,0.06792 -0.675616,0 -1.013425,0 0,0.09605 0.238866,0.220225 0,0.288136 -0.238869,0.06791 -0.862354,-0.08591 -1.013424,0 -0.310992,0.176841 0.314111,1.262065 0,1.440682 -0.213649,0.12149 -0.799778,0.166652 -1.013427,0.288139 -0.302143,0.17181 0.477733,0.440445 0,0.576271 -0.238866,0.06792 -0.774556,-0.06791 -1.013424,0 -0.238869,0.06792 0.238868,0.220221 0,0.28814 -0.238869,0.06791 -0.77456,-0.06792 -1.013426,0 -0.477732,0.135825 0.302143,0.40446 0,0.576275 -2.319023,1.318686 0.420036,-1.222687 -2.026851,0.864403 -0.186242,0.158862 0.216667,1.090944 0,1.15255 -0.238866,0.06791 -0.77456,-0.06791 -1.013425,0 -0.277296,0.07884 0.274886,0.996237 0,1.152547 -0.213648,0.12149 -0.862354,0.15928 -1.013424,0.28814 -0.320474,0.27335 0,0.57627 0,0.86441 0,0.67231 0,1.34463 0,2.01695 0,0.48023 0,0.96046 0,1.44069 0,0.096 -0.238869,0.22022 0,0.28813 0.238866,0.0679 0.675617,0 1.013424,0 0.337809,0.0961 0.748426,0.17513 1.013425,0.28814 0.337807,0.19209 0.675616,0.38418 1.013425,0.57627 0,0.096 -0.151071,0.20223 0,0.28814 0.427298,0.24298 1.496853,0.35024 2.026852,0.57628 0.418999,0.17869 0.774558,0.37252 1.013424,0.57626 0.213649,0.18224 -0.477734,0.44045 0,0.57628 0.477733,0.13583 1.549118,-0.13583 2.026851,0 0.534124,0.15186 0.479301,0.42441 1.013425,0.57627 0.238869,0.0679 0.774558,-0.0679 1.013425,0 0.477732,0.13583 -0.477734,0.44045 0,0.57628 0.238868,0.0679 0.774559,-0.0679 1.013427,0 0.238865,0.0679 -0.187384,0.20821 0,0.28813 -2.50074,0.87233 2.75658,0.49561 3.040276,0.57628 0.238866,0.0679 -0.238869,0.22022 0,0.28813 0.534121,0.15186 1.492726,0.13628 2.02685,0.28814 0.238868,0.0679 -0.238867,0.22022 0,0.28814 0.238868,0.0679 0.774558,-0.0679 1.013423,0 2.096814,0.59616 -3.204207,-0.0233 1.013429,0.57627 0.302143,0.043 0.774555,-0.0679 1.013424,0 2.096812,0.59617 -3.204208,-0.0233 1.013424,0.57627 0.302146,0.0429 0.774559,-0.0679 1.013427,0 0.238865,0.0679 -0.238868,0.22022 0,0.28814 0.238865,0.0679 0.69295,-0.0304 1.013426,0 0.716597,0.0679 1.310249,0.22022 2.026848,0.28813 0.320475,0.0304 0.711281,-0.043 1.013428,0 0.427295,0.0607 0.615927,0.2128 1.013424,0.28815 0.628498,0.11912 1.422558,0.15927 2.026853,0.28813 0.764371,0.163 1.231851,0.42558 2.026847,0.57627 0.34852,0.0661 2.818104,-0.0632 3.040282,0 0.238866,0.0679 -0.302153,0.24519 0,0.28814 0.370046,0.0526 4.869869,-0.0561 5.067122,0 0.238874,0.0679 -0.238866,0.22022 0,0.28813 0.47774,0.13583 1.42256,-0.0859 2.026849,0 0.427296,0.0607 0.675619,0.1921 1.013424,0.28814 0.675619,0 1.3859,-0.0607 2.026857,0 0.453212,0.043 0.615922,0.21279 1.013416,0.28814 0.628503,0.11913 1.31026,0.22022 2.026857,0.28814 0.558726,0.0529 3.837036,-0.0616 4.053706,0 0.23886,0.0679 -0.23887,0.22022 0,0.28813 0.0408,0.0116 3.68154,0 4.0537,0 2.02685,0 4.05369,0 6.08055,0 0.4564,0 2.73185,0.0438 3.04028,0 0.42728,-0.0607 0.58612,-0.22739 1.01342,-0.28813 0.30214,-0.043 0.71128,0.0429 1.01342,0 0.4273,-0.0608 0.58614,-0.2274 1.01343,-0.28814 0.60429,-0.0859 1.54912,0.13583 2.02686,0 0.23886,-0.0679 -0.30215,-0.24519 0,-0.28814 0.60428,-0.0859 1.42255,0.0859 2.02684,0 0.30214,-0.0429 -0.23887,-0.22022 0,-0.28814 0.0325,-0.009 2.79449,0 3.04027,0 1.68904,0.57628 3.37809,1.15255 5.06713,1.72883 0.33781,0 0.77457,-0.0679 1.01344,0 0.23886,0.0679 -0.23887,0.22022 0,0.28814 0.23886,0.0679 0.71128,-0.043 1.01342,0 0.26906,0.0383 2.90574,0.7879 3.04029,0.86441 0.15106,0.0859 -0.1511,0.20222 0,0.28813 0.21362,0.12149 0.79976,0.16665 1.01341,0.28813 0.15108,0.0859 -0.15107,0.20224 0,0.28814 0.21365,0.12149 0.79977,0.16665 1.01342,0.28814 0.30215,0.17181 -0.47772,0.44044 0,0.57627 0.23886,0.0679 0.77456,-0.0679 1.01342,0 0.23888,0.0679 -0.23886,0.22022 0,0.28814 0.23888,0.0679 0.77458,-0.0679 1.01344,0 0.23885,0.0679 -0.23886,0.22022 0,0.28813 0.23885,0.0679 0.77455,-0.0679 1.01342,0 0.47774,0.13583 -0.30214,0.40447 0,0.57628 0.21365,0.12149 0.79977,0.16664 1.01342,0.28814 0.30215,0.17181 -0.47773,0.44044 0,0.57627 0.23887,0.0679 0.77456,-0.0679 1.01343,0 0.23886,0.0679 -0.23887,0.22022 0,0.28814 0.23886,0.0679 0.77457,-0.0679 1.01341,0 0.23888,0.0679 -0.23884,0.22022 0,0.28813 0.23888,0.0679 0.77457,-0.0679 1.01345,0 1.36204,0.38726 -1.36205,0.18902 0,0.57628 0.23886,0.0679 0.71127,-0.043 1.01341,0 4.21764,0.59957 -1.08338,-0.0199 1.01343,0.57627 0.23887,0.0679 0.77455,-0.0679 1.01342,0 0.24387,0.0693 -0.24385,1.08321 0,1.15254 0.23887,0.0679 0.77457,-0.0679 1.01343,0 0.23888,0.0679 -0.23886,0.22023 0,0.28814 0.23888,0.0679 0.77456,-0.0679 1.01343,0 0.47773,0.13583 -0.30215,0.40446 0,0.57628 2.10882,1.19915 -0.07,-0.30803 2.02684,0.28813 0.23887,0.0679 -0.15106,0.20223 0,0.28814 0.4273,0.24298 1.59956,0.33329 2.02685,0.57627 0.15108,0.0859 -0.23885,0.22023 0,0.28814 0.23887,0.0679 0.67563,0 1.01344,0"
       id="path3713"
       inkscape:connector-curvature="0" />
    <path
       style="fill:none;stroke:#000000;stroke-width:0.26458332px;stroke-linecap:butt;stroke-linejoin:miter;stroke-opacity:1"
       d="m 26.458333,133.71428 c 1.007935,0 2.035447,0.19768 3.023809,0 0.349441,-0.0699 0.437216,-0.59658 0.755952,-0.75595 0.216357,-0.10818 3.375922,0 3.779763,0 0.251984,0 0.577773,0.17818 0.755952,0 0.178181,-0.17818 -0.178179,-0.57777 0,-0.75595 0.178181,-0.17818 0.503967,0 0.755951,0 0.251987,0 0.503971,0 0.755955,0 1.511903,0 3.023809,0 4.535712,0 0.251986,0 0.577773,0.17818 0.755954,0 0.178179,-0.17818 -0.178181,-0.57777 0,-0.75595 0.178179,-0.17818 0.503968,0 0.755952,0 0.554929,0 4.272169,0.13177 4.535715,0 0.318735,-0.15937 0.41788,-0.64327 0.755951,-0.75595 0.717159,-0.23906 1.511906,0 2.267858,0 2.015874,0 4.031744,0 6.047618,0 2.116667,0 0.907143,0 3.023809,0 0.503968,0 1.014794,0.0828 1.511906,0 1.267389,-0.21124 2.507803,-0.57425 3.779761,-0.75596 0.498903,-0.0713 1.007938,0 1.511906,0 2.015873,0 4.031744,0 6.047618,0 5.291667,0 10.583333,0 15.875,0 4.283731,0 8.567459,0 12.851195,0 1.76389,0 3.52777,0 5.29166,0 0.75595,0 1.53448,-0.18334 2.26786,0 0.54663,0.13666 0.97737,0.57777 1.5119,0.75596 0.66075,0.22024 4.0804,-0.22767 4.53572,0 0.63747,0.31873 0.87443,1.19316 1.5119,1.5119 0.45077,0.22538 1.15555,-0.35636 1.51191,0 0.17818,0.17818 -0.22538,0.64326 0,0.75595 0.45076,0.22538 1.06114,-0.22538 1.5119,0 0.22538,0.11269 -0.17818,0.57777 0,0.75595 0.17818,0.17818 0.57778,-0.17818 0.75595,0 0.17819,0.17818 -0.17817,0.57778 0,0.75596 0.35636,0.35636 1.15555,-0.35636 1.51191,0 0.17818,0.17818 -0.17818,0.57777 0,0.75595 0.17818,0.17818 0.57777,-0.17818 0.75595,0 0.17818,0.17818 -0.17818,0.57777 0,0.75595 0.17818,0.17818 0.53057,-0.11269 0.75595,0 3.1461,1.57305 -0.80813,-0.0522 0.75596,1.51191 0.17818,0.17818 0.57777,-0.17818 0.75595,0 0.17818,0.17818 -0.17818,0.57777 0,0.75595 0.17818,0.17818 0.57777,-0.17818 0.75595,0 0.0343,0.0343 0,3.42333 0,3.77976 0,2.51984 0,5.03968 0,7.55952 0,0.25199 0,0.50397 0,0.75596 0,0.25198 0.17818,0.57777 0,0.75595 -0.17818,0.17818 -0.57777,-0.17818 -0.75595,0 -0.35636,0.35636 0.35636,1.15554 0,1.5119 -0.17818,0.17818 -0.57777,-0.17818 -0.75595,0 -0.17818,0.17818 0.17818,0.57778 0,0.75596 -0.35636,0.35635 -1.15555,-0.35636 -1.51191,0 -0.35636,0.35635 0.35636,1.15554 0,1.5119 -0.35636,0.35636 -1.06114,-0.22538 -1.5119,0 -0.63748,0.31874 -0.87443,1.19317 -1.51191,1.5119 -0.45076,0.22539 -1.15554,-0.35636 -1.5119,0 -0.17818,0.17819 0.17818,0.57778 0,0.75596 -0.37798,0.37797 -1.88988,-0.37798 -2.26786,0 -0.17818,0.17818 0.17818,0.57777 0,0.75595 -0.35636,0.35636 -1.15554,-0.35636 -1.5119,0 -0.17818,0.17818 0.17817,0.57777 0,0.75595 -0.37798,0.37798 -1.88989,-0.37797 -2.26786,0 -0.17818,0.17818 0.17818,0.57777 0,0.75596 -0.17818,0.17817 -0.53057,-0.1127 -0.75595,0 -0.63748,0.31873 -0.82047,1.33904 -1.51191,1.5119 -0.73338,0.18334 -1.5507,-0.23905 -2.26786,0 -0.23905,0.0797 0.17818,0.57777 0,0.75595 -0.17817,0.17818 -0.53057,-0.11269 -0.75595,0 -0.31874,0.15937 -0.41788,0.64326 -0.75595,0.75596 -0.47811,0.15936 -1.0338,-0.15937 -1.51191,0 -0.67614,0.22538 -0.87442,1.19316 -1.5119,1.5119 -0.45076,0.22538 -1.0338,-0.15937 -1.5119,0 -2.584941,0.86164 -0.562548,0.62701 -3.023814,2.26786 -0.209663,0.13977 -0.503967,0 -0.755951,0 -0.503971,0 -1.061144,-0.22538 -1.511906,0 -0.225383,0.11269 0,0.50396 0,0.75595 -0.503968,0.25198 -0.977366,0.57777 -1.511906,0.75595 -0.717158,0.23905 -1.550697,-0.23905 -2.267855,0 -0.338074,0.11269 -0.437216,0.59658 -0.755954,0.75595 -0.22538,0.11269 -0.530569,-0.11269 -0.755952,0 -0.318738,0.15937 -0.437216,0.59659 -0.755951,0.75595 -0.225383,0.1127 -0.577774,-0.17817 -0.755955,0 -0.178178,0.17819 0.178181,0.57778 0,0.75596 -2.950281,2.95028 -0.405982,-0.17499 -2.267855,0.75595 -0.637476,0.31874 -0.874432,1.19317 -1.511905,1.5119 -0.225383,0.1127 -0.577774,-0.17817 -0.755952,0 -0.356359,0.35636 0.356359,1.15555 0,1.51191 -0.356359,0.35636 -1.155547,-0.35636 -1.511906,0 -0.398423,0.39842 -0.357529,1.11348 -0.755952,1.51191 -1.564092,1.56409 0.06114,-2.39015 -1.511905,0.75595 -0.112689,0.22538 0.178181,0.57777 0,0.75595 -2.950282,2.95028 -0.405982,-0.17499 -2.267858,0.75595 -3.146091,1.57305 0.808141,-0.0522 -0.755951,1.51191 -0.178179,0.17817 -0.577774,-0.17818 -0.755952,0 -0.178181,0.17817 0.112691,0.53057 0,0.75595 -0.159369,0.31874 -0.503968,0.50397 -0.755952,0.75595 -0.251986,0.25199 -0.437216,0.59658 -0.755954,0.75595 -0.22538,0.1127 -0.577771,-0.17818 -0.755952,0 -0.178181,0.17818 0.07968,0.5169 0,0.75596 0.455634,1.36822 -1.224597,1.40594 -1.511905,2.26785 -0.159367,0.47811 0.225382,1.06114 0,1.51191 -0.22538,0.45076 -1.155544,-0.35636 -1.511904,0 -0.178181,0.17818 0.112692,0.53057 0,0.75595 -0.159369,0.31874 -0.596585,0.43721 -0.755951,0.75595 -0.112692,0.22538 0.178178,0.57778 0,0.75595 -0.178181,0.17818 -0.577774,-0.17817 -0.755955,0 -0.154543,0.15455 0.149866,1.96813 0,2.26786 -0.159369,0.31874 -0.503967,0.50397 -0.755951,0.75596 0,0.50396 0.159369,1.03379 0,1.5119 -0.225383,0.67614 -1.286523,0.83576 -1.511906,1.5119 -0.239051,0.71716 0,1.51191 0,2.26786 0,1.76389 0,3.52778 0,5.29167 0,0.35643 -0.03426,3.7455 0,3.77976 0.178181,0.17818 0.643263,-0.22538 0.755954,0 0.22538,0.45076 -0.225382,1.06114 0,1.51191 0.112689,0.22538 0.577771,-0.17819 0.755952,0 0.356359,0.35635 -0.225383,1.06114 0,1.5119 0.159369,0.31874 0.596582,0.43721 0.755951,0.75595 0.112692,0.22538 -0.178178,0.57777 0,0.75595 0.178181,0.17818 0.577774,-0.17818 0.755955,0 0.178178,0.17818 -0.178181,0.57778 0,0.75596 0.178178,0.17817 0.616175,-0.20967 0.755951,0 0.442011,0.66301 0.313942,1.60484 0.755952,2.26785 0.139777,0.20967 0.577773,-0.17818 0.755952,0 0.178181,0.17818 0,0.50397 0,0.75596 0.251986,0.25198 0.459443,0.55827 0.755954,0.75595 0.301149,0.20077 2.96908,1.42981 3.023809,1.5119 0.279551,0.41933 -0.225383,1.06114 0,1.51191 0.22538,0.45076 1.155544,-0.35636 1.511903,0 3.863205,3.8632 -3.16969,-1.05436 2.267858,3.02381 0.450762,0.33807 1.043082,0.4434 1.511905,0.75595 0.296508,0.19767 0.503968,0.50397 0.755952,0.75595 0.842933,0.84293 3.032855,3.28182 3.779763,3.77976 0.209662,0.13978 0.530569,-0.11269 0.755952,0 0.318738,0.15937 0.437213,0.59659 0.755952,0.75596 0.225382,0.11269 0.577773,-0.17819 0.755951,0 0.178181,0.17817 -0.178178,0.57777 0,0.75595 0.35636,0.35636 1.033799,-0.15937 1.511906,0 0.534541,0.17818 1.043083,0.4434 1.511906,0.75595 0.296508,0.19767 0.596583,0.43722 0.755952,0.75595 0.112691,0.22538 -0.225383,0.64326 0,0.75596 0.450762,0.22538 1.06114,-0.22539 1.511903,0 0.225383,0.11269 -0.22538,0.64326 0,0.75595 0.676145,0.33807 1.591715,-0.33807 2.267857,0 0.318739,0.15937 0.437216,0.59658 0.755955,0.75595 0.676142,0.33807 1.591712,-0.33807 2.267855,0 0.225382,0.11269 -0.178179,0.57777 0,0.75595 0.178181,0.17818 0.5169,-0.0797 0.755954,0 0.534536,0.17818 0.977366,0.57778 1.511906,0.75595 0.44017,0.14673 4.01556,0 4.53571,0 0.25199,0 0.50397,0 0.75595,0 0.25199,0 0.53058,-0.11269 0.75596,0 0.31873,0.15937 0.41788,0.64327 0.75595,0.75596 0.51428,0.17142 3.37892,-0.20042 3.77976,0 0.31874,0.15936 0.43722,0.59658 0.75595,0.75595 0.29803,0.14901 3.0331,0 3.77977,0 3.0238,0 6.04761,0 9.07142,0 1.51191,0 3.02381,0 4.53572,0 0.25198,0 0.50397,0 0.75595,0 0.25199,0 0.53057,0.11269 0.75595,0 0.31874,-0.15937 0.43722,-0.59659 0.75595,-0.75595 0.29973,-0.14987 2.11332,0.15454 2.26786,0 0.17818,-0.17818 -0.17818,-0.57777 0,-0.75596 0.35636,-0.35636 1.15555,0.35636 1.51191,0 0.17818,-0.17817 -0.17818,-0.57777 0,-0.75595 0.17818,-0.17818 0.57777,0.17818 0.75595,0 0.17818,-0.17818 -0.17818,-0.57777 0,-0.75595 0.17818,-0.17818 0.53057,0.11269 0.75595,0 0.31874,-0.15937 0.43722,-0.59658 0.75595,-0.75595 0.22539,-0.11269 0.53057,0.11269 0.75596,0 0.31873,-0.15937 0.45944,-0.55828 0.75595,-0.75595 0.46882,-0.31255 1.04308,-0.44341 1.5119,-0.75596 0.29651,-0.19767 0.45945,-0.55828 0.75596,-0.75595 0.46882,-0.31255 1.04308,-0.4434 1.5119,-0.75595 0.29651,-0.19768 0.45944,-0.55828 0.75595,-0.75595 0.46882,-0.31255 0.97737,-0.57778 1.51191,-0.75596 0.4781,-0.15936 1.15554,0.35636 1.5119,0 0.35636,-0.35636 -0.35636,-1.15554 0,-1.5119 0.35636,-0.35636 1.15555,0.35636 1.51191,0 0.23408,-0.23408 -0.23408,-3.54569 0,-3.77976 0.17818,-0.17818 0.57777,0.17818 0.75595,0 0.0243,-0.0243 0,-2.08452 0,-2.26786 0,-1.25992 0,-2.51984 0,-3.77976 0,-0.25199 0.17818,-0.57777 0,-0.75595 -0.17818,-0.17818 -0.57777,0.17818 -0.75595,0 -0.17818,-0.17818 0.17818,-0.57778 0,-0.75596 -0.17818,-0.17818 -0.57777,0.17818 -0.75596,0 -1.56409,-1.56409 2.39014,0.0611 -0.75595,-1.5119 -0.22538,-0.11269 -0.57777,0.17818 -0.75595,0 -0.35636,-0.35636 0.35636,-1.15555 0,-1.51191 -0.35636,-0.35635 -1.15554,0.35636 -1.5119,0 -0.17819,-0.17818 0.17817,-0.57777 0,-0.75595 -1.5641,-1.56409 0.0611,2.39014 -1.51191,-0.75595 -0.11269,-0.22538 0.17818,-0.57777 0,-0.75595 -0.35636,-0.35636 -1.15554,0.35636 -1.5119,0 -0.35636,-0.35636 0.35636,-1.15555 0,-1.51191 -0.17818,-0.17818 -0.57778,0.17818 -0.75596,0 -0.17818,-0.17818 0.17818,-0.57777 0,-0.75595 -0.17818,-0.17818 -0.53057,0.11269 -0.75595,0 -0.31874,-0.15937 -0.43721,-0.59658 -0.75595,-0.75595 -0.22538,-0.11269 -0.57777,0.17818 -0.75595,0 -0.17818,-0.17818 0.22538,-0.64327 0,-0.75596 -0.45077,-0.22538 -1.06115,0.22539 -1.51191,0 -0.22538,-0.11269 0.17818,-0.57777 0,-0.75595 -0.17818,-0.17818 -0.53057,0.11269 -0.75595,0 -0.31874,-0.15937 -0.41788,-0.64326 -0.75595,-0.75595 -0.003,-0.001 -2.26714,7.9e-4 -2.26786,0 -0.17818,-0.17818 0.17818,-0.57777 0,-0.75595 -0.17818,-0.17818 -0.53057,0.11269 -0.75595,0 -0.31874,-0.15937 -0.43722,-0.59659 -0.75595,-0.75596 -0.19546,-0.0977 -3.9999,0 -4.53572,0 -1.76389,0 -3.52778,0 -5.29167,0 -0.25198,0 -0.57777,-0.17817 -0.75595,0 -0.17818,0.17819 0.17818,0.57778 0,0.75596 -0.37797,0.37797 -1.88988,-0.37798 -2.26786,0 -0.17817,0.17818 0.17819,0.57777 0,0.75595 -0.17817,0.17818 -0.57777,-0.17818 -0.75595,0 -0.17818,0.17818 0.17818,0.57777 0,0.75595 -0.17818,0.17818 -0.57777,-0.17818 -0.75595,0 -0.17818,0.17818 0.17818,0.57778 0,0.75595 -1.56409,1.5641 0.0611,-2.39014 -1.5119,0.75596 -0.1127,0.22538 0.17818,0.57777 0,0.75595 -1.5641,1.56409 0.0611,-2.39014 -1.51191,0.75595 -0.11269,0.22538 0.17818,0.57777 0,0.75596 -0.35636,0.35635 -1.15554,-0.35637 -1.5119,0 -0.35636,0.35635 0.35636,1.15554 0,1.5119 -0.17818,0.17818 -0.57778,-0.17818 -0.75596,0 -0.17818,0.17818 0.17818,0.57777 0,0.75595 -0.17818,0.17818 -0.57777,-0.17818 -0.75595,0 -0.17818,0.17818 0.11269,0.53057 0,0.75595 -0.15937,0.31874 -0.59658,0.43722 -0.75595,0.75596 -0.22538,0.45076 0.35636,1.15554 0,1.5119 -1.56409,1.56409 0.0611,-2.39014 -1.51191,0.75595 -0.11269,0.22538 0.11269,0.53058 0,0.75596 -1.72985,3.45969 0.31332,-3.20783 -1.5119,2.26785 -0.0797,0.23906 0.17818,0.57778 0,0.75595 -0.17818,0.17819 -0.57777,-0.17817 -0.75595,0 -0.17818,0.17819 0,0.50397 0,0.75596 -0.25199,0 -0.57778,-0.17818 -0.75596,0 -0.17817,0.17818 0.11269,0.53057 0,0.75595 -1.72984,3.4597 0.31333,-3.20782 -1.5119,2.26786 -0.46547,1.3964 1.15351,0.35839 -0.75595,2.26786 -0.17818,0.17817 -0.57777,-0.17819 -0.75596,0 -0.35635,0.35635 0.22539,1.06114 0,1.5119 -0.15936,0.31874 -0.59658,0.43721 -0.75595,0.75595 -0.11269,0.22538 0.17818,0.57777 0,0.75595 -0.17818,0.17818 -0.57777,-0.17818 -0.75595,0 -0.17818,0.17818 0.17818,0.57777 0,0.75596 -0.17818,0.17817 -0.57777,-0.17819 -0.75595,0 -0.17818,0.17817 0.0797,0.51689 0,0.75595 -1.825228,5.47568 0.21794,-1.19184 -1.511906,2.26786 -0.112692,0.22538 0.112688,0.53057 0,0.75595 -0.318738,0.63747 -1.193168,0.87443 -1.511906,1.5119 -0.112691,0.22538 0.178181,0.57778 0,0.75595 -1.564092,1.5641 0.06114,-2.39014 -1.511903,0.75596 -0.112692,0.22538 0.178178,0.57777 0,0.75595 -0.178181,0.17818 -0.643263,-0.22538 -0.755955,0 -0.676142,0.59634 0.338074,1.59171 0,2.26786 -0.159369,0.31873 -0.596582,0.43721 -0.755951,0.75595 -0.112692,0.22538 0.112691,0.53057 0,0.75595 -0.159369,0.31874 -0.558279,0.45944 -0.755952,0.75595 -0.46037,0.69056 -0.645268,1.83454 -1.511906,2.26786 -1.042728,0.52136 -0.676177,-0.9155 -1.511903,0.75595 -0.338074,0.67615 0.338071,1.59172 0,2.26786 -0.112691,0.22538 -0.577773,-0.17818 -0.755954,0 -0.178179,0.17818 0.178181,0.57777 0,0.75595 -1.564092,1.5641 0.06114,-2.39014 -1.511903,0.75595 -0.225383,0.45077 0.356359,1.15555 0,1.51191 -0.178181,0.17818 -0.577774,-0.17818 -0.755955,0 -0.178178,0.17818 0.178181,0.57777 0,0.75595 -0.178178,0.17818 -0.57777,-0.17818 -0.755951,0 -0.178179,0.17818 0.178181,0.57778 0,0.75595 -0.178179,0.17818 -0.577774,-0.17817 -0.755952,0 -0.178181,0.17818 0.112691,0.53058 0,0.75596 -1.729848,3.4597 0.31332,-3.20782 -1.511906,2.26785 -0.07968,0.23906 0.178181,0.57778 0,0.75596 -0.178178,0.17818 -0.530569,-0.11269 -0.755951,0 -0.200713,0.10035 -2.167501,2.06714 -2.267858,2.26785 -0.112691,0.22538 0.178181,0.57778 0,0.75596 -0.493204,0.4932 -1.018701,-0.49321 -1.511903,0 -0.356359,0.35636 0.22538,1.06114 0,1.5119 -0.159369,0.31874 -0.596585,0.43722 -0.755954,0.75595 -0.112689,0.22538 0.178181,0.57777 0,0.75596 -0.35636,0.35635 -1.155544,-0.35636 -1.511904,0 -0.178181,0.17817 0.112689,0.53057 0,0.75595 -0.159369,0.31874 -0.503967,0.50396 -0.755954,0.75595 -0.251984,0.25199 -0.437213,0.59658 -0.755951,0.75595 -0.225381,0.11269 -0.577774,-0.17818 -0.755952,0 -0.356359,0.35636 0.356359,1.15555 0,1.51191 -0.356359,0.35636 -1.155547,-0.35636 -1.511906,0 -0.178178,0.17818 0.112691,0.53057 0,0.75595 -1.573046,3.14609 0.05219,-0.80814 -1.511903,0.75595 -0.35636,0.35636 0.22538,1.06114 0,1.51191 -0.76445,1.5289 -1.75432,0.24241 -2.267858,0.75594 -0.178181,0.1782 0.178179,0.57777 0,0.75597 -0.178181,0.17817 -0.530571,-0.11269 -0.755951,0 -0.318739,0.15936 -0.437216,0.59658 -0.755955,0.75594 -0.22538,0.11269 -0.57777,-0.17817 -0.755951,0 -0.178181,0.17817 0.178181,0.57777 0,0.75597 -0.181907,0.1819 -2.841903,-0.18193 -3.023809,0 -0.178181,0.17817 0.178178,0.57777 0,0.75594 -0.178181,0.17817 -0.503968,0 -0.755952,0 -1.259922,0 -2.519841,0 -3.779763,0 -0.251984,0 -0.577774,0.17817 -0.755952,0 -0.178181,-0.17817 0.178178,-0.57777 0,-0.75594 -0.178181,-0.1782 -0.530572,0.11268 -0.755952,0 -0.318738,-0.15939 -0.437216,-0.59658 -0.755954,-0.75597 -0.22538,-0.11269 -0.57777,0.17817 -0.755951,0 -0.178181,-0.17817 0.112691,-0.53057 0,-0.75594 -1.573046,-3.1461 0.05219,0.80814 -1.511906,-0.75597 -0.178179,-0.17817 0.178181,-0.57777 0,-0.75594 -0.178179,-0.17817 -0.577771,0.17817 -0.755952,0 -0.178178,-0.17817 0.178181,-0.57777 0,-0.75596 -0.178178,-0.17817 -0.577773,0.17819 -0.755952,0 -0.178181,-0.17817 0.178179,-0.57777 0,-0.75595 -0.356359,-0.35636 -1.155546,0.35636 -1.511905,0 -0.178179,-0.17818 0.178181,-0.57777 0,-0.75595 -0.178179,-0.17818 -0.530569,0.11269 -0.755952,0 -0.144706,-0.0724 -2.951456,-2.87911 -3.023809,-3.02381 -0.112691,-0.22538 0.112691,-0.53057 0,-0.75595 -0.159369,-0.31874 -0.596585,-0.43722 -0.755952,-0.75595 -0.112691,-0.22539 0.178179,-0.57778 0,-0.75596 -0.178181,-0.17818 -0.577773,0.17818 -0.755954,0 -0.178178,-0.17818 0,-0.50397 0,-0.75595 0,-0.25198 0,-0.50397 0,-0.75595 0,-2.01588 0.251984,0.25198 -0.755952,-0.75595 -0.377975,-0.37798 0.377976,-1.88989 0,-2.26786 -0.178181,-0.17818 -0.577773,0.17818 -0.755951,0 -0.178181,-0.17818 0,-0.50397 0,-0.75595 0,-1.51191 0,-3.02381 0,-4.53572 0,-2.01587 0,-4.03174 0,-6.04762 0,-0.25198 0,-0.50397 0,-0.75595 0,-0.25198 -0.178181,-0.57777 0,-0.75595 0.178178,-0.17818 0.57777,0.17818 0.755951,0 0.35636,-0.35636 -0.225382,-1.06114 0,-1.51191 1.573046,-3.14609 -0.05219,0.80814 1.511906,-0.75595 0.178179,-0.17818 -0.07968,-0.5169 0,-0.75595 0.178179,-0.53454 0.443405,-1.04308 0.755952,-1.51191 0.395346,-0.59301 1.11656,-0.91888 1.511903,-1.5119 0.31255,-0.46882 0.443405,-1.04308 0.755954,-1.51191 -0.07546,-1.49758 1.113483,-0.35752 1.511904,-0.75595 0.356359,-0.35636 -0.35636,-1.15554 0,-1.5119 0.377975,-0.37798 1.889881,0.37798 2.267857,0 0.178181,-0.17818 -0.178178,-0.57777 0,-0.75595 0.178181,-0.17818 0.503968,0 0.755952,0 0.251986,-0.50397 0.577773,-0.97737 0.755954,-1.51191 0.07968,-0.23905 -0.178181,-0.57777 0,-0.75595 0.178178,-0.17818 0.577771,0.17818 0.755952,0 0.178181,-0.17818 -0.178181,-0.57778 0,-0.75595 0.178181,-0.17819 0.577773,0.17817 0.755951,0 0.178181,-0.17819 -0.178178,-0.57778 0,-0.75596 0.178181,-0.17818 0.577773,0.17818 0.755954,0 0.178179,-0.17818 -0.178181,-0.57777 0,-0.75595 0.178179,-0.17818 0.577771,0.17818 0.755952,0 0.178178,-0.17818 -0.112691,-0.53057 0,-0.75595 1.573046,-3.14609 -0.05219,0.80814 1.511903,-0.75595 0.178181,-0.17818 -0.178178,-0.57778 0,-0.75595 0.178181,-0.17819 0.577774,0.17817 0.755955,0 0.178178,-0.17819 -0.112692,-0.53058 0,-0.75596 0.159369,-0.31874 0.596582,-0.43721 0.755951,-0.75595 0.112692,-0.22538 -0.178181,-0.57777 0,-0.75595 0.178181,-0.17818 0.577773,0.17818 0.755952,0 0.356359,-0.35636 -0.35636,-1.15555 0,-1.51191 0.178181,-0.17818 0.577773,0.17818 0.755954,0 0.02432,-0.0243 0,-2.08452 0,-2.26786"
       id="path3715"
       inkscape:connector-curvature="0" />
    <path
       id="path3811"
       d="m 237.18713,74.401041 c -2.33964,-0.51013 -4.72893,-0.928794 -6.9799,-1.764395 -1.36635,-0.481479 -2.74011,-0.839425 -4.02069,-1.531599 -1.1808,-0.628534 -2.37016,-1.319432 -3.44602,-2.121705 -1.14449,-0.658201 -2.31255,-1.269034 -3.46943,-1.907378 -1.21373,-0.819161 -2.61735,-1.275477 -3.92451,-1.919359 -1.5713,-0.60501 -3.09294,-1.361506 -4.57184,-2.168115 -1.28566,-0.861116 -2.46996,-1.857745 -3.7595,-2.717646 -1.17484,-1.001065 -2.64184,-1.406959 -4.01416,-2.028167 -1.49866,-0.734536 -2.80991,-1.778722 -4.30793,-2.507244 -1.25974,-0.730126 -2.50728,-1.502392 -3.91611,-1.909937 -0.2068,-0.09825 -0.42525,-0.175012 -0.6204,-0.294749 -0.36104,-0.221522 -0.65977,-0.534511 -1.01791,-0.760698 -0.47403,-0.299381 -0.9948,-0.451956 -1.47851,-0.74073 -1.0338,-0.444312 -1.97426,-1.020765 -3.07759,-1.288076 -1.30185,-0.06785 -2.52468,-0.410618 -3.789,-0.689063 -1.35901,-0.292724 -2.75734,-0.169275 -4.1116,-0.453967 -1.47214,-0.347768 -2.97631,-0.487706 -4.48306,-0.566581 -1.50548,-0.05978 -3.01253,-0.05555 -4.51891,-0.05551 -1.51182,0.0019 -3.02364,0.0042 -4.53546,0.0054 -1.51199,0.0011 -3.02398,0.0011 -4.53596,0.0013 -1.33118,0.04386 -2.61324,0.464137 -3.94638,0.613905 -1.50398,-0.03901 -2.86556,0.477795 -4.2613,0.953137 -1.31156,0.369356 -2.51275,1.025131 -3.72861,1.620189 -3.86617,1.666846 -10.33653,5.771187 6.62989,-4.017536 -3.36539,2.974001 -7.78322,4.677034 -11.51849,6.966103 -2.98088,1.82675 6.05248,-3.501218 9.08996,-5.232209 0.18363,-0.104643 -0.35138,0.234934 -0.52707,0.352401 -3.70863,2.376051 -7.53488,4.604552 -11.45928,6.545506 -0.61202,0.302702 -1.10725,0.630653 -1.76358,0.858708 -3.50311,2.322967 0.48351,-0.33582 8.67337,-4.945147 0.16096,-0.09059 -0.28452,0.235566 -0.42648,0.353718 -0.41084,0.341943 -0.76316,0.725136 -1.14714,1.096227 -0.68183,0.874454 -1.51525,1.557028 -2.378,2.235621 -23.14992,13.304028 -4.52394,2.595748 -0.96055,0.563176 0.17281,-0.09857 -0.34145,0.204719 -0.50586,0.316744 -0.5175,0.352604 -1.02094,0.729974 -1.50532,1.126225 -0.98002,0.754507 -1.88001,1.600954 -2.77812,2.449282 -0.80563,0.804569 -1.56528,1.656355 -2.3936,2.437527 -0.7678,0.793901 -1.24199,1.796156 -1.83154,2.714165 -0.73978,0.797877 -1.52083,1.471453 -2.02031,2.449859 -0.60111,1.177017 -1.18959,2.3638 -1.7614,3.55705 -0.63135,1.260758 -1.3728,2.472896 -2.10943,3.677145 -0.60063,1.060704 -1.15619,2.122872 -1.55341,3.276152 -0.38369,1.27746 -0.91187,2.50545 -1.31184,3.77637 -0.25597,1.23494 -0.70243,2.41159 -0.94692,3.64867 -0.22567,1.4025 -0.23916,2.82693 -0.2573,4.24389 -0.0108,1.50993 -0.005,3.01992 -0.002,4.52987 -0.006,1.49414 -0.0518,2.97882 0.17604,4.4585 0.17433,1.27255 0.64601,2.47693 1.19057,3.63128 0.65168,0.98587 1.32771,1.95057 1.99492,2.92469 0.55824,1.10745 1.29377,2.08334 2.06085,3.04726 0.69424,1.19992 1.62606,2.22554 2.38593,3.38171 0.69438,1.01754 1.54509,1.90123 2.33085,2.84271 0.85221,0.7146 1.48493,1.59843 2.16275,2.46514 0.67123,0.88345 1.28082,1.80102 1.85851,2.75067 0.80775,0.9709 1.47466,2.04832 2.08153,3.15322 0.59427,1.20093 1.55067,2.01413 2.51105,2.89604 1.03932,0.67268 1.80028,1.59189 2.58291,2.52473 0.87617,0.85252 1.80857,1.62909 2.74966,2.41322 0.9647,1.19475 2.26535,1.92193 3.51112,2.75468 0.94473,0.86141 1.85618,1.74809 2.79728,2.61566 1.12289,0.99275 2.24514,2.00874 3.51779,2.81025 1.20479,0.46742 2.16185,1.3655 3.32418,1.90227 1.2154,0.41214 2.51611,0.41728 3.7856,0.44755 1.49635,0.0193 2.9929,0.007 4.48932,0.002 1.42228,-0.15385 2.76471,0.30175 4.15108,0.52309 1.38884,0.18689 2.7925,0.20488 4.19147,0.22314 1.50453,0.012 3.00914,0.007 4.51371,0.005 1.5132,-0.002 3.0264,-0.003 4.5396,-0.003 1.5121,-2.6e-4 3.0242,-2.6e-4 4.5363,-2.6e-4 1.5119,1e-5 3.0238,2e-5 4.53569,3e-5 1.51191,1e-5 3.02381,1e-5 4.53571,1e-5 1.5119,0 3.02381,0 4.53571,0 1.5333,-0.0453 3.1011,0.15017 4.54459,0.67979 1.21845,0.38871 2.19786,1.23492 3.18214,2.02006 1.01079,0.9588 1.70722,2.17639 2.62031,3.21744 0.69822,0.94574 1.60355,1.69409 2.24255,2.68356 0.78276,1.24688 1.40931,2.57629 1.84651,3.98103 0.48472,1.28901 0.99078,2.57204 1.41119,3.88385 0.43806,1.47444 0.53796,3.01158 0.60118,4.53919 0.0435,1.51827 0.0345,3.03741 0.0314,4.55612 -0.004,1.51235 -0.006,3.02471 -0.007,4.53706 -0.001,1.51183 -7.9e-4,3.02366 -0.001,4.53549 0.0831,1.55357 -0.12183,3.08288 -0.46861,4.59315 -0.34739,1.27482 -0.84876,2.47582 -1.54269,3.59844 -0.85758,1.08307 -1.66837,2.19596 -2.57583,3.23795 -0.827,1.00339 -1.39953,2.17227 -2.09669,3.25894 -0.84061,1.16723 -1.55625,2.4052 -2.51494,3.48186 -0.96234,0.93778 -1.87032,1.94229 -2.72207,2.98256 -0.82955,1.05676 -1.35492,2.30326 -2.10938,3.4112 -0.82171,1.2405 -2.0152,2.17297 -3.05903,3.21858 -0.89194,1.07252 -2.0617,1.84835 -3.07588,2.78951 -0.60712,1.00755 -1.3261,1.90571 -2.10808,2.78619 -0.83553,0.94669 -1.89956,1.60843 -2.87009,2.39792 -1.1083,0.82146 -2.20872,1.58959 -3.10422,2.64751 -1.08737,1.54219 -2.46773,2.8179 -3.90254,4.02616 -1.24431,0.96386 -2.49769,1.90598 -3.64981,2.97955 -3.90257,3.61661 -8.19022,5.40531 -13.11413,8.2526 19.84088,-12.44631 2.45636,0.43599 -4.82383,1.95254 -1.58622,0.2722 -3.19967,0.27972 -4.8041,0.2882 -1.54528,-0.002 -3.09059,-0.008 -4.63585,-0.0186 -1.78336,-0.24268 -3.58686,-0.61399 -5.24102,-1.33922 -1.14118,-0.50835 -2.17823,-1.22013 -3.25926,-1.84446 -0.85419,-0.7306 -1.85209,-1.24435 -2.7823,-1.87414 -1.2557,-0.65156 -2.43327,-1.42426 -3.66773,-2.11422 -1.67006,-0.90225 -3.25286,-1.90504 -4.74108,-3.08556 -1.23868,-1.23769 -2.21001,-2.70474 -3.38773,-3.99222 -1.06749,-1.09229 -2.04418,-2.28442 -2.81178,-3.60632 -0.55649,-1.33584 -1.10067,-2.69171 -1.45967,-4.09722 -0.31494,-1.27726 -0.15423,-2.57084 0.2846,-3.79452 0.49267,-0.99567 0.99799,-2.0482 1.78433,-2.84719 0.86058,-0.92386 1.57372,-1.91346 2.67111,-2.56966 4.38013,-3.53124 7.23245,-4.62066 11.30479,-6.36185 0.65163,-0.27862 1.28914,-0.40401 1.91648,-0.74172 1.25693,-0.36009 2.28447,-1.17873 3.5026,-1.62094 1.60999,-0.40931 3.1752,-0.94195 4.81468,-1.23317 1.69103,-0.33722 3.37406,-0.67768 5.09665,-0.85747 1.61946,-0.14585 3.24653,-0.15696 4.87123,-0.16474 1.51767,-0.002 3.03534,0.003 4.55302,0.005 1.52128,0.0739 2.98718,0.005 4.47625,-0.28606 3.97656,-0.85637 12.04733,-6.26505 -5.84062,3.93 0.96742,-0.60185 1.75685,-1.47371 2.46525,-2.35853 0.55391,-1.05005 0.88271,-2.21846 1.26267,-3.34454 0.56393,-1.30284 0.81559,-2.68451 0.9596,-4.08707 0.11646,-1.23692 -0.10003,-2.50457 -0.44941,-3.69155 -0.5495,-1.0035 -1.40918,-1.74682 -2.17316,-2.57882 -1.19071,-1.29768 -2.61102,-2.37286 -4.03586,-3.39992 -1.04691,-0.90393 -2.09751,-1.7842 -3.26056,-2.53542 -1.24349,-0.90751 -2.48743,-1.80763 -3.9065,-2.41943 -1.12084,-0.78354 -2.27466,-1.53126 -3.38912,-2.33482 -1.38499,-0.70263 -2.70114,-1.55056 -4.13473,-2.15643 -1.95632,-0.88286 -4.0522,-1.46743 -6.11737,-2.05512 -2.56288,-0.72259 -5.17194,-1.30088 -7.70613,-2.12095 -1.61367,-0.58495 -3.2956,-0.84498 -4.99942,-0.95739 -1.49559,-0.0683 -2.99336,-0.0543 -4.49004,-0.0498 -1.50875,0.006 -3.01751,0.009 -4.52627,0.011 -1.53928,-0.0376 -2.76453,-0.0647 -4.26128,0.3094 -1.28417,0.10011 -2.44508,0.55948 -3.67818,0.86811 -0.62595,0.54423 -1.45047,0.57474 -2.18377,0.84172 -0.35872,0.13061 -0.68152,0.34607 -1.03483,0.49068 -1.24617,0.57647 -2.61385,0.79309 -3.89983,1.24937 -1.47246,0.50074 -3.0201,0.64732 -4.56247,0.73531 -1.52212,0.0631 -3.04601,0.0543 -4.56908,0.052 -1.05537,-0.19455 -0.54663,-0.0431 -1.52721,-0.45083 0,0 9.30097,-6.32022 9.30097,-6.32022 v 0 c 0.83414,0.17973 0.39576,0.11902 1.31735,0.16542 1.50607,-0.004 3.01448,-0.002 4.5168,-0.12275 1.50373,-0.15244 2.98369,-0.42795 4.41266,-0.9355 1.31918,-0.35491 2.59449,-0.81982 3.85648,-1.34224 1.08144,-0.4464 2.20569,-0.80971 3.29866,-1.22171 1.2229,-0.36839 2.47217,-0.55786 3.72521,-0.8001 1.44949,-0.21568 2.91809,-0.0924 4.37903,-0.12534 1.50899,-0.003 3.01798,-0.008 4.52698,-0.0108 1.51649,0.002 3.03606,-0.003 4.54777,0.13428 1.74322,0.19848 3.4461,0.58329 5.09994,1.17838 2.54199,0.76565 5.10844,1.44519 7.67731,2.11378 2.11187,0.62795 4.25831,1.21123 6.25503,2.15663 1.45171,0.70502 2.87496,1.48901 4.25633,2.32041 1.09139,0.73261 2.14156,1.53138 3.27849,2.1835 1.41806,0.72593 2.7164,1.63844 4.01663,2.55489 1.1365,0.80606 2.21391,1.67774 3.26585,2.59104 1.44617,1.11237 2.92042,2.21587 4.16237,3.55998 0.88897,0.9408 1.84675,1.82627 2.43121,3.00457 0.43504,1.29552 0.67692,2.72968 0.63764,4.09262 -0.10447,1.48023 -0.26581,2.96824 -0.81424,4.36087 -0.48455,1.14362 -0.81394,2.34438 -1.16489,3.53142 -0.53385,1.13137 -1.48018,1.913 -2.27177,2.86181 -4.22429,2.42373 -8.57069,6.06936 -13.63468,6.87437 -1.52249,0.20679 -3.05444,0.13279 -4.58767,0.13775 -1.51476,-0.003 -3.02956,-0.008 -4.5443,0.004 -1.59748,0.0213 -3.19801,0.0569 -4.78509,0.25715 -1.69845,0.23587 -3.36327,0.62403 -5.04784,0.93806 -1.58233,0.3767 -3.16392,0.82407 -4.6735,1.42901 -1.14287,0.61131 -2.31039,1.14451 -3.51428,1.62431 -4.12147,1.45093 -10.67952,5.73876 6.08663,-3.97428 -0.50273,0.35793 -1.0858,0.5148 -1.56289,0.90362 -0.56293,0.4588 -0.34008,0.4072 -0.79046,0.98473 -0.12239,0.15696 -0.27188,0.29077 -0.40782,0.43615 -1.36028,1.48264 0.60753,-0.59844 -0.7863,0.67836 -0.53719,0.49209 -0.56977,1.32499 -1.17653,1.77231 -0.43526,1.0154 -0.85812,2.05595 -0.60365,3.18649 0.29504,1.31509 0.81533,2.56493 1.28709,3.82208 0.72863,1.26319 1.70829,2.35501 2.71085,3.40837 1.08506,1.27444 2.02334,2.67495 3.24076,3.83464 1.47173,1.11886 3.04898,2.05077 4.67384,2.9303 1.25189,0.70624 2.47552,1.46158 3.72968,2.16448 0.93546,0.58974 1.88071,1.16581 2.7634,1.83299 1.01073,0.62531 2.03391,1.25849 3.13706,1.70466 1.61078,0.5562 3.27601,0.98503 4.99075,1.0034 1.54448,-10e-4 3.08902,0.0161 4.63344,-0.003 1.55582,-0.0349 3.12383,-0.091 4.63704,-0.49179 0.84243,-0.25379 1.63991,-0.53712 2.42664,-0.93706 0.2716,-0.13807 1.06558,-0.59129 0.80211,-0.43828 -1.51418,0.87935 -24.27395,14.01449 1.42659,-0.81953 -2.99219,1.73803 -5.97702,3.48877 -8.97656,5.21409 -0.21578,0.12412 0.40562,-0.29089 0.62426,-0.40989 0.21739,-0.11832 0.46877,-0.1696 0.67937,-0.29962 0.6369,-0.39321 0.96124,-1.10725 1.61883,-1.47556 1.25128,-0.96604 2.28248,-2.20894 3.6788,-3.00052 1.40774,-1.17054 2.85193,-2.29108 3.9818,-3.75175 0.49239,-0.80813 1.06988,-1.66691 1.88002,-2.19266 0.19225,-0.12477 0.42425,-0.18306 0.60984,-0.31752 0.17806,-0.12901 0.31258,-0.30935 0.46886,-0.46402 0.53342,-0.34859 0.94758,-0.82908 1.478,-1.17018 0.52474,-0.33744 1.09978,-0.5145 1.43845,-1.10081 0.89244,-0.68037 1.74273,-1.60619 2.16326,-2.64524 0.77365,-1.21995 2.08025,-1.84877 3.08509,-2.85864 0.92904,-1.11721 2.04469,-2.04257 3.09785,-3.03977 0.7245,-1.15697 1.51461,-2.25986 2.08328,-3.51388 0.84115,-1.09137 1.75145,-2.10417 2.65806,-3.13499 1.14356,-0.87853 1.8396,-2.07074 2.58543,-3.28445 0.84769,-1.00716 1.33627,-2.22976 2.08752,-3.30749 0.8174,-1.10795 1.80813,-2.06941 2.56901,-3.22658 0.9006,-0.87687 1.33395,-2.04767 1.72143,-3.22046 0.53776,-1.35155 0.65276,-2.8538 0.62282,-4.29737 0,-1.51206 -5e-5,-3.02411 5.3e-4,-4.53617 8e-4,-1.51289 0.002,-3.02579 0.007,-4.53868 0.004,-1.50628 0.0132,-3.01275 -0.013,-4.51889 -0.0399,-1.43254 -0.091,-2.87818 -0.46359,-4.27073 -0.40261,-1.32308 -0.93764,-2.60159 -1.41429,-3.89913 -0.3727,-1.31388 -0.96543,-2.539 -1.70968,-3.68421 -0.62173,-0.93417 -1.52158,-1.64512 -2.16186,-2.56986 -0.82952,-1.00955 -1.51318,-2.14803 -2.50103,-3.01741 -0.91237,-0.69157 -1.80629,-1.41127 -2.94803,-1.6832 -1.42992,-0.33673 -2.87566,-0.48698 -4.34599,-0.41177 -1.5119,0 -3.02381,0 -4.53571,0 -1.51191,0 -3.02381,0 -4.53571,-1e-5 -1.51189,-1e-5 -3.02379,-3e-5 -4.53568,-2e-5 -1.51201,3e-5 -3.02402,4e-5 -4.53603,5.3e-4 -1.51303,7.9e-4 -3.02606,0.002 -4.53909,0.004 -1.50981,10e-4 -3.01981,0.006 -4.52942,-0.0232 -1.43855,-0.0391 -2.88187,-0.0957 -4.30071,-0.35623 -1.33646,-0.25297 -2.65387,-0.49256 -4.02464,-0.37004 -1.50727,0.004 -3.01533,0.0176 -4.52184,-0.0397 -1.39708,-0.0801 -2.81597,-0.19254 -4.08196,-0.84701 -1.13188,-0.65588 -2.20186,-1.41724 -3.37082,-2.01307 -1.27498,-0.89312 -2.45063,-1.9159 -3.61302,-2.94905 -0.90952,-0.81432 -1.75516,-1.69363 -2.70167,-2.46472 -1.29741,-0.82632 -2.5129,-1.731 -3.56846,-2.86208 -1.00904,-0.81347 -1.99122,-1.64789 -2.8892,-2.58533 -0.7323,-0.90441 -1.54404,-1.69647 -2.48533,-2.39247 -1.0637,-0.95118 -2.02162,-1.94116 -2.69358,-3.22025 -0.60347,-1.09139 -1.30429,-2.11903 -2.07766,-3.09753 -0.56011,-0.91345 -1.14765,-1.79718 -1.79934,-2.64711 -0.65122,-0.86447 -1.34215,-1.67286 -2.13143,-2.42043 -0.82767,-0.96275 -1.66099,-1.91733 -2.38078,-2.96667 -0.74888,-1.1209 -1.65902,-2.12415 -2.34382,-3.28933 -0.78909,-0.98091 -1.52681,-1.99214 -2.10403,-3.11656 -0.7051,-1.02183 -1.4236,-2.03247 -2.08979,-3.0811 -0.58504,-1.24679 -1.10996,-2.54544 -1.31957,-3.91446 -0.27032,-1.53593 -0.31417,-3.05967 -0.26124,-4.61963 -0.002,-1.51342 -0.008,-3.02685 -0.004,-4.54028 0.009,-1.46564 0.0122,-2.93513 0.16895,-4.39412 0.17594,-1.29515 0.59082,-2.49471 0.89785,-3.74987 0.3084,-1.33897 0.9301,-2.53941 1.26991,-3.86764 0.23725,-0.60117 0.35609,-1.23344 0.6159,-1.82458 0.56784,-1.29198 -0.0328,0.19851 0.6016,-1.00571 0.10457,-0.19849 0.16833,-0.41593 0.25249,-0.62391 0.67757,-1.21826 1.39759,-2.40391 2.17788,-3.561114 0.49317,-1.259869 1.23522,-2.386899 1.68239,-3.665122 0.32925,-0.499581 0.44835,-1.060146 0.78694,-1.551795 0.45845,-0.665694 0.22169,-0.200004 0.78439,-0.710221 0.13305,-0.120639 0.23374,-0.27274 0.35061,-0.409112 0.89789,-0.657497 1.17414,-1.839349 1.83362,-2.712979 0.70621,-0.895951 1.6093,-1.630251 2.40038,-2.449317 0.80072,-0.986104 1.7976,-1.753446 2.70204,-2.633644 0.67504,-0.470942 1.25714,-1.121423 1.96331,-1.538578 0.31757,-0.187598 25.11572,-14.517513 0.97641,-0.520586 0.93914,-0.535308 1.75972,-1.167011 2.48991,-1.959023 2.84572,-3.904504 7.96047,-5.759757 12.11021,-7.864705 0.57941,-0.291891 1.15856,-0.584949 1.73574,-0.880369 0.20614,-0.105514 0.8087,-0.451639 0.60871,-0.334878 -9.39664,5.485966 -11.8496,7.200802 -8.44751,4.851921 6.39578,-3.700857 20.49465,-11.882297 1.63146,-0.985168 -1.06744,0.616654 2.5442,-1.388787 1.37871,-0.929095 4.24538,-2.550345 8.16271,-5.246349 12.60305,-7.252494 1.21647,-0.610875 2.50997,-1.073809 3.80765,-1.479732 1.43552,-0.458441 2.89613,-0.682054 4.39657,-0.801577 1.33766,-0.223771 2.65882,-0.586155 4.02938,-0.481811 1.51181,-1.93e-4 3.02361,-5.29e-4 4.53541,-0.0019 1.51244,-0.0016 3.02488,-0.0049 4.53731,-0.0027 1.52104,0.006 3.04356,0.01127 4.56176,0.115392 1.52639,0.125863 3.03592,0.353859 4.53991,0.642946 1.3956,0.127172 2.80663,0.164142 4.17211,0.514286 1.27255,0.307174 2.56713,0.429096 3.83504,0.749978 1.11136,0.398449 2.15215,0.964501 3.21251,1.47965 1.0284,0.511051 1.93805,1.202611 2.99345,1.644483 1.39996,0.547267 2.68671,1.328825 3.99655,2.060051 1.43228,0.794269 2.76481,1.762189 4.26364,2.438535 1.4604,0.599237 2.90635,1.212856 4.1555,2.204995 1.21547,0.88078 2.37719,1.845903 3.66472,2.615417 1.48987,0.761286 2.98874,1.510999 4.54774,2.122609 1.35334,0.608375 2.73641,1.165969 3.9855,1.978253 1.1728,0.677151 2.42058,1.223391 3.53051,2.004952 1.07714,0.718454 2.18129,1.417492 3.35225,1.972519 1.27298,0.5677 2.61037,0.938268 3.9109,1.436295 2.25924,0.729494 4.58098,1.236991 6.91741,1.649074 0,0 -9.22511,6.399001 -9.22511,6.399001 z"
       inkscape:connector-curvature="0"
       style="stroke-width:0.26458332" />
    <g
       sodipodi:type="inkscape:box3d"
       id="g3831"
       inkscape:perspectiveID="#perspective3829"
       inkscape:corner0="0.63343313 : 0.16493666 : 0 : 1"
       inkscape:corner7="-0.43876878 : 0.11840717 : 0.25 : 1">
      <path
         sodipodi:type="inkscape:box3dside"
         id="path3833"
         style="fill:#353564;fill-rule:evenodd;stroke:none;stroke-width:0.56460989;stroke-linejoin:round"
         inkscape:box3dsidetype="6"
         d="m 21.467141,280.0002 v 7.25128 l 24.222151,1.42541 v -6.28877 z"
         points="21.467141,287.25148 45.689292,288.67689 45.689292,282.38812 21.467141,280.0002 " />
      <path
         sodipodi:type="inkscape:box3dside"
         id="path3843"
         style="fill:#e9e9ff;fill-rule:evenodd;stroke:none;stroke-width:0.56460989;stroke-linejoin:round"
         inkscape:box3dsidetype="11"
         d="M 45.689292,282.38812 184.10053,261.76695 v 14.60063 L 45.689292,288.67689 Z"
         points="184.10053,261.76695 184.10053,276.36758 45.689292,288.67689 45.689292,282.38812 " />
      <path
         sodipodi:type="inkscape:box3dside"
         id="path3835"
         style="fill:#4d4d9f;fill-rule:evenodd;stroke:none;stroke-width:0.56460989;stroke-linejoin:round"
         inkscape:box3dsidetype="5"
         d="m 21.467141,280.0002 153.791299,-34.36885 8.84209,16.1356 -138.411238,20.62117 z"
         points="175.25844,245.63135 184.10053,261.76695 45.689292,282.38812 21.467141,280.0002 " />
      <path
         sodipodi:type="inkscape:box3dside"
         id="path3841"
         style="fill:#afafde;fill-rule:evenodd;stroke:none;stroke-width:0.56460989;stroke-linejoin:round"
         inkscape:box3dsidetype="13"
         d="m 21.467141,287.25148 153.791299,-20.51567 8.84209,9.63177 -138.411238,12.30931 z"
         points="175.25844,266.73581 184.10053,276.36758 45.689292,288.67689 21.467141,287.25148 " />
      <path
         sodipodi:type="inkscape:box3dside"
         id="path3839"
         style="fill:#d7d7ff;fill-rule:evenodd;stroke:none;stroke-width:0.56460989;stroke-linejoin:round"
         inkscape:box3dsidetype="14"
         d="m 175.25844,245.63135 v 21.10446 l 8.84209,9.63177 v -14.60063 z"
         points="175.25844,266.73581 184.10053,276.36758 184.10053,261.76695 175.25844,245.63135 " />
      <path
         sodipodi:type="inkscape:box3dside"
         id="path3837"
         style="fill:#8686bf;fill-rule:evenodd;stroke:none;stroke-width:0.56460989;stroke-linejoin:round"
         inkscape:box3dsidetype="3"
         d="M 21.467141,280.0002 175.25844,245.63135 v 21.10446 L 21.467141,287.25148 Z"
         points="175.25844,245.63135 175.25844,266.73581 21.467141,287.25148 21.467141,280.0002 " />
    </g>
    <ellipse
       id="path3845"
       cx="75.127792"
       cy="12.566756"
       rx="68.696625"
       ry="13.154672"
       style="stroke-width:0.26458332" />
    <ellipse
       id="path3847"
       style="stroke-width:0.26458332"
       ry="32.633598"
       rx="24.352842"
       cy="188.07013"
       cx="90.696182" />
    <path
       sodipodi:type="star"
       id="path3849"
       sodipodi:sides="5"
       sodipodi:cx="25.724691"
       sodipodi:cy="76.586159"
       sodipodi:r1="33.509289"
       sodipodi:r2="16.754644"
       sodipodi:arg1="0.82241828"
       sodipodi:arg2="1.4507368"
       inkscape:flatsided="false"
       inkscape:rounded="0"
       inkscape:randomized="0"
       d="M 48.526124,101.14155 27.731417,93.220195 9.417159,105.85964 10.524895,83.634868 -7.1553503,70.122778 14.323975,64.308464 21.71124,43.318086 33.878457,61.949417 56.124284,62.48874 42.164712,79.817849 Z"
       inkscape:transform-center-x="1.2402248"
       inkscape:transform-center-y="-1.9972955"
       style="stroke-width:0.26458332" />
    <path
       sodipodi:type="star"
       id="path3851"
       sodipodi:sides="5"
       sodipodi:cx="48.526123"
       sodipodi:cy="101.14155"
       sodipodi:r1="79.351311"
       sodipodi:r2="39.675659"
       sodipodi:arg1="2.4553447"
       sodipodi:arg2="3.0836633"
       inkscape:flatsided="false"
       inkscape:rounded="0"
       inkscape:randomized="0"
       d="M -12.862344,151.42163 8.9170172,103.43865 -18.263156,58.295046 34.101564,64.180893 68.636546,24.380872 79.220361,76.001507 127.74433,96.547343 81.920764,122.5648 77.375243,175.06285 38.470908,139.52189 Z"
       inkscape:transform-center-x="-6.2144624"
       inkscape:transform-center-y="-1.4196881"
       style="stroke-width:0.26458332" />
  </g>
</svg>
