<?xml version="1.0" encoding="UTF-8" standalone="no"?>
<!-- Created with Inkscape (http://www.inkscape.org/) -->

<svg
   xmlns:dc="http://purl.org/dc/elements/1.1/"
   xmlns:cc="http://creativecommons.org/ns#"
   xmlns:rdf="http://www.w3.org/1999/02/22-rdf-syntax-ns#"
   xmlns:svg="http://www.w3.org/2000/svg"
   xmlns="http://www.w3.org/2000/svg"
   xmlns:sodipodi="http://sodipodi.sourceforge.net/DTD/sodipodi-0.dtd"
   xmlns:inkscape="http://www.inkscape.org/namespaces/inkscape"
   width="210mm"
   height="297mm"
   viewBox="0 0 210 297"
   version="1.1"
   id="svg8"
   inkscape:version="0.92.3 (2405546, 2018-03-11)"
   sodipodi:docname="drawing.svg">
  <defs
     id="defs2" />
  <sodipodi:namedview
     id="base"
     pagecolor="#ffffff"
     bordercolor="#666666"
     borderopacity="1.0"
     inkscape:pageopacity="0.0"
     inkscape:pageshadow="2"
     inkscape:zoom="0.35"
     inkscape:cx="400"
     inkscape:cy="560"
     inkscape:document-units="mm"
     inkscape:current-layer="layer1"
     showgrid="false"
     inkscape:window-width="1920"
     inkscape:window-height="1017"
     inkscape:window-x="1912"
     inkscape:window-y="-8"
     inkscape:window-maximized="1" />
  <metadata
     id="metadata5">
    <rdf:RDF>
      <cc:Work
         rdf:about="">
        <dc:format>image/svg+xml</dc:format>
        <dc:type
           rdf:resource="http://purl.org/dc/dcmitype/StillImage" />
        <dc:title></dc:title>
      </cc:Work>
    </rdf:RDF>
  </metadata>
  <g
     inkscape:label="Layer 1"
     inkscape:groupmode="layer"
     id="layer1">
    <path
       style="fill:none;stroke:#000000;stroke-width:0.1891312px;stroke-linecap:butt;stroke-linejoin:miter;stroke-opacity:1"
       d="m 10.570247,17.896396 c 2.026848,-0.09605 4.104802,-0.12764 6.080549,-0.288137 0.459353,-0.03731 0.615929,-0.212793 1.013428,-0.288137 0.628499,-0.119129 1.310251,-0.220223 2.026849,-0.288137 0.640948,-0.06074 1.422563,0.08591 2.026851,0 1.089399,-0.154868 1.909405,-0.447661 3.040278,-0.576273 0.627291,-0.07134 1.351231,0 2.026848,0 0.337809,0 0.774559,0.06792 1.013425,0 0.238868,-0.06791 -0.238866,-0.220222 0,-0.288136 0.238868,-0.06791 0.692953,0.03037 1.013427,0 0.716599,-0.06791 1.325514,-0.208375 2.026849,-0.288137 0.991841,-0.112801 2.048436,-0.175337 3.040277,-0.288136 0.701334,-0.07976 1.310249,-0.220223 2.026852,-0.288138 0.640944,-0.06074 1.422559,0.08591 2.026849,0 0.427298,-0.06074 0.560207,-0.245183 1.013427,-0.288136 0.689431,-0.06534 4.529767,0.07639 5.067126,0 0.427298,-0.06074 0.586129,-0.227392 1.013423,-0.288136 0.810743,-0.115255 2.229538,0.115253 3.040277,0 0.302147,-0.04295 -0.238865,-0.220223 0,-0.288138 0.238868,-0.06791 0.675616,0 1.013424,0 0.40062,0 4.634311,0.06153 5.067128,0 0.4273,-0.06074 0.560209,-0.245183 1.013425,-0.288136 0.544824,-0.05164 3.195685,0 4.053701,0 2.702468,0 5.404936,0 8.107404,0 2.702465,0 5.404933,0 8.107403,0 0.4564,0 2.731855,-0.04385 3.040276,0 0.427295,0.06074 0.586126,0.227392 1.013424,0.288136 0.604289,0.08591 1.549119,-0.135829 2.026853,0 0.238864,0.06791 -0.302147,0.245185 0,0.288138 0.636956,0.09055 3.416738,-0.09055 4.0537,0 0.854597,0.121488 1.120412,0.490367 2.026853,0.576272 0.640941,0.06075 1.42256,-0.08591 2.026841,0 0.604305,0.08591 -0.477732,0.440445 0,0.576274 0.238874,0.06791 0.71128,-0.04295 1.013424,0 3.361112,0.955629 -0.955454,-0.135829 2.026857,0.288137 0.854593,0.121489 1.231861,0.425584 2.026849,0.576273 0.628511,0.11913 1.398354,0.169007 2.026857,0.288136 0.794997,0.150689 1.172256,0.454785 2.02684,0.576274 0.302162,0.04295 0.774568,-0.06791 1.013433,0 0.238874,0.06791 -0.238865,0.220222 0,0.288137 0.238874,0.06791 0.774556,-0.06791 1.013426,0 0.23886,0.06791 -0.15107,0.202231 0,0.288136 0.21365,0.12149 0.67562,0.192091 1.01342,0.288136 0.33781,0.09605 0.58614,0.227393 1.01342,0.288138 0.30215,0.04295 0.77457,-0.06791 1.01344,0 0.53412,0.15186 0.59443,0.397578 1.01342,0.576273 0.265,0.113017 0.79978,0.166648 1.01343,0.288137 0.15107,0.0859 -0.23888,0.220221 0,0.288136 0.47773,0.135829 1.54912,-0.135829 2.02685,0 0.47772,0.135829 -0.47773,0.440444 0,0.576273 0.68844,0.195739 2.01545,-0.294614 3.04026,0.288137 0.30215,0.171812 -0.30213,0.404461 0,0.576273 2.10883,1.199156 -0.07,-0.308029 2.02687,0.288137 0.23886,0.06791 -0.15108,0.20223 0,0.288137 0.21365,0.121489 0.79977,0.166646 1.01342,0.288136 0.15108,0.08591 -0.23887,0.220222 0,0.288136 0.23887,0.06791 0.71127,-0.04295 1.01342,0 4.21763,0.599579 -1.08339,-0.01989 1.01342,0.576274 0.23888,0.06791 0.77458,-0.06791 1.01344,0 0.53411,0.151862 0.38493,0.457143 1.01342,0.576274 5.74275,0 0.3378,-0.192092 2.02685,0.288137 0.23886,0.06791 0.77457,-0.06792 1.01343,0 0.47773,0.135828 -0.47773,0.440443 0,0.576272 0.23887,0.06792 0.77455,-0.06791 1.01343,0 2.0968,0.596165 -3.20421,-0.0233 1.01341,0.576274 1.39788,0.198721 0.90649,-0.34895 2.02687,0.288136 0.15107,0.08591 -0.15109,0.202231 0,0.288137 0.21365,0.121489 0.6756,0.192091 1.01341,0.288137 0.33781,0.09605 0.58612,0.227392 1.01342,0.288137 0.30215,0.04295 0.86236,-0.08591 1.01343,0 0.30214,0.17181 -0.30214,0.404461 0,0.576273 0.15107,0.08591 0.77455,-0.06791 1.01343,0 0.23887,0.06791 -0.10684,0.19702 0,0.288136 0.23887,0.203743 0.47931,0.424412 1.01343,0.576274 0.23886,0.06791 0.77456,-0.06791 1.01341,0 0.20719,0.05891 -0.20089,0.750165 0,0.864409 0.4273,0.242979 1.59956,0.333295 2.02685,0.576274 0.15109,0.08591 -0.23885,0.220222 0,0.288136 0.23888,0.06792 0.77457,-0.06791 1.01344,0 0.23887,0.06792 -0.23887,0.220222 0,0.288138 0.23887,0.06791 0.77456,-0.06792 1.01341,0 0.29986,0.08525 -0.31385,0.974069 0,1.152546 0.21365,0.121488 0.86236,0.159278 1.01344,0.288136 0.18161,0.154905 0,0.908596 0,1.152547 0,0.864409 0,1.72882 0,2.59323 0,0.09605 0,0.192091 0,0.288136 0,0.09605 0.23886,0.220223 0,0.288136 -0.23887,0.06792 -0.77456,-0.06791 -1.01344,0 -0.20717,0.05891 0.20091,0.750167 0,0.864411 -0.21364,0.121489 -0.79977,0.166648 -1.01341,0.288136 -0.15108,0.08591 0.23887,0.220223 0,0.288138 -0.23887,0.06791 -0.77456,-0.06791 -1.01344,0 -0.47773,0.135828 0.30216,0.40446 0,0.576272 -0.21365,0.121489 -0.79977,0.166648 -1.01342,0.288137 -0.2009,0.114244 0.20719,0.805504 0,0.86441 -0.47773,0.135828 -1.54911,-0.135829 -2.02684,0 -0.23888,0.06791 0.15108,0.202231 0,0.288137 -0.42731,0.242978 -1.49685,0.350239 -2.02686,0.576273 -0.12589,0.05367 -1.96191,1.134083 -2.02685,1.152546 -0.23886,0.06791 -0.77456,-0.06791 -1.01341,0 -0.23889,0.06791 0.23885,0.220223 0,0.288138 -0.23889,0.06791 -0.77457,-0.06791 -1.01344,0 -0.23887,0.06791 0.23887,0.220221 0,0.288135 -2.09681,0.596166 0.0819,-0.911018 -2.02684,0.288138 -0.30215,0.17181 0.47773,0.440446 0,0.576271 -0.23888,0.06791 -0.77456,-0.06791 -1.01343,0 -0.23886,0.06791 0,0.192092 0,0.28814 -0.33782,0 -0.77457,-0.06792 -1.01343,0 -2.09682,0.596164 3.20421,-0.02329 -1.01343,0.576271 -0.30214,0.04295 -0.77455,-0.06791 -1.01342,0 -1.23433,0.350946 -0.47472,0.643759 -2.02686,0.864411 -0.30213,0.04295 -0.71127,-0.04295 -1.01342,0 -0.42731,0.06075 -0.61592,0.212793 -1.01342,0.288136 -0.62849,0.11913 -1.49273,0.136275 -2.02686,0.288136 -0.23885,0.06791 0.15109,0.20223 0,0.288135 -0.49861,0.283534 -3.55507,0.869017 -4.05369,1.15255 -0.15109,0.08591 0.23887,0.220225 0,0.288136 -0.47773,0.135829 -1.6521,-0.159828 -2.02685,0 -0.93369,0.398195 -0.36129,0.915768 -2.02685,1.15255 -0.40181,0.05712 -2.83311,-0.05891 -3.04028,0 -0.47773,0.135829 0.30214,0.404457 0,0.576267 -0.932867,0.530464 -2.107417,0.04582 -3.040283,0.576279 -1.276403,0.725811 3.849083,-0.249352 -2.02684,0.864407 -0.28108,0.05328 -0.774567,-0.06791 -1.013433,0 -2.096816,0.596168 3.204202,-0.02327 -1.013424,0.576271 -0.302145,0.04295 -0.774559,-0.06791 -1.013425,0 -0.238865,0.06792 0.238866,0.220225 0,0.28814 -0.477731,0.135825 -1.549126,-0.13583 -2.026857,0 -0.238857,0.06791 0,0.192091 0,0.288135 -0.337805,0.192092 -0.479289,0.424415 -1.013424,0.576275 -0.238866,0.06791 -0.774551,-0.06791 -1.013416,0 -0.238866,0.06791 0.238865,0.220221 0,0.288136 -1.351238,0.384183 -0.972447,-0.611233 -2.026849,0.288135 -0.213652,0.182233 0.302144,0.404465 0,0.576275 -0.151085,0.08591 -0.711292,-0.04295 -1.013429,0 -0.427298,0.06074 -0.675617,0.192092 -1.013427,0.288136 -0.337809,0.09604 -0.675617,0.192095 -1.013426,0.288136 0,0.09605 0.23887,0.220221 0,0.288139 -0.238864,0.06791 -0.774559,-0.06792 -1.013425,0 -0.238868,0.06791 0.238866,0.220221 0,0.288139 -0.238868,0.06791 -0.774558,-0.06792 -1.013422,0 -0.238869,0.06791 0.238864,0.220218 0,0.288132 -0.238869,0.06792 -0.774561,-0.06791 -1.013429,0 -0.477734,0.13583 0.302147,0.404461 0,0.576272 -0.213649,0.12149 -0.675616,0.192095 -1.013424,0.288139 -0.337808,0.09604 -0.586129,0.227394 -1.013424,0.288136 -0.302147,0.04295 -0.774559,-0.06791 -1.013428,0 -0.506713,0.144069 0.506715,0.720341 0,0.86441 -0.238864,0.06791 -0.711278,-0.04296 -1.013426,0 -0.427297,0.06075 -0.586124,0.227394 -1.013422,0.288136 -0.302147,0.04295 -0.774561,-0.06791 -1.013426,0 -0.238868,0.06792 0.151072,0.20223 0,0.288136 -0.427298,0.242981 -1.599554,0.333297 -2.026851,0.576275 -0.151074,0.08591 0.151073,0.202234 0,0.288139 -0.21365,0.121483 -0.799775,0.166645 -1.013424,0.288136 -0.151075,0.0859 0.151069,0.202226 0,0.288132 -0.213651,0.12149 -0.862355,0.159279 -1.013429,0.288139 -0.213645,0.182232 0.302147,0.404464 0,0.576275 -0.151069,0.08591 -0.711278,-0.04295 -1.013423,0 -4.217632,0.599576 1.083387,-0.01993 -1.013425,0.576275 -2.096813,0.596164 0.08197,-0.911021 -2.026853,0.288136 -0.302142,0.171807 0.302147,0.40446 0,0.576271 -0.213649,0.121491 -0.799774,0.166649 -1.013423,0.288136 -0.151075,0.0859 0.151073,0.202234 0,0.288139 -0.4273,0.242974 -1.496855,0.350239 -2.026852,0.576271 -0.418999,0.178693 -0.774556,0.372535 -1.013425,0.576275 -0.106819,0.09112 0.238869,0.220221 0,0.288136 -0.238864,0.06792 -0.675616,0 -1.013425,0 0,0.09605 0.238866,0.220225 0,0.288136 -0.238869,0.06791 -0.862354,-0.08591 -1.013424,0 -0.310992,0.176841 0.314111,1.262065 0,1.440682 -0.213649,0.12149 -0.799778,0.166652 -1.013427,0.288139 -0.302143,0.17181 0.477733,0.440445 0,0.576271 -0.238866,0.06792 -0.774556,-0.06791 -1.013424,0 -0.238869,0.06792 0.238868,0.220221 0,0.28814 -0.238869,0.06791 -0.77456,-0.06792 -1.013426,0 -0.477732,0.135825 0.302143,0.40446 0,0.576275 -2.319023,1.318686 0.420036,-1.222687 -2.026851,0.864403 -0.186242,0.158862 0.216667,1.090944 0,1.15255 -0.238866,0.06791 -0.77456,-0.06791 -1.013425,0 -0.277296,0.07884 0.274886,0.996236 0,1.152546 -0.213648,0.121491 -0.862354,0.159276 -1.013424,0.288136 -0.320474,0.273354 0,0.576275 0,0.86441 0,0.672319 0,1.344638 0,2.016957 0,0.480228 0,0.960455 0,1.440686 0,0.09604 -0.238869,0.220217 0,0.288136 0.238866,0.06791 0.675617,0 1.013424,0 0.337809,0.09605 0.748426,0.175121 1.013425,0.288132 0.337807,0.192091 0.675616,0.384187 1.013425,0.576275 0,0.09604 -0.151071,0.20223 0,0.288135 0.427298,0.242982 1.496853,0.350243 2.026852,0.576279 0.418999,0.178693 0.774558,0.372527 1.013424,0.576268 0.213649,0.182236 -0.477734,0.440449 0,0.576278 0.477733,0.135826 1.549118,-0.135829 2.026851,0 0.534124,0.15186 0.479301,0.424408 1.013425,0.576272 0.238869,0.06791 0.774558,-0.06791 1.013425,0 0.477732,0.135829 -0.477734,0.440445 0,0.576275 0.238868,0.06791 0.774559,-0.06791 1.013427,0 0.238865,0.06791 -0.187384,0.208216 0,0.288132 -2.50074,0.872331 2.75658,0.495611 3.040276,0.576275 0.238866,0.06791 -0.238869,0.220224 0,0.288139 0.534121,0.15186 1.492726,0.136276 2.02685,0.288136 0.238868,0.06791 -0.238867,0.220221 0,0.288135 0.238868,0.06791 0.774558,-0.06791 1.013423,0 2.096814,0.596164 -3.204207,-0.02331 1.013429,0.576272 0.302143,0.04295 0.774555,-0.06791 1.013424,0 2.096812,0.596171 -3.204208,-0.0233 1.013424,0.576275 0.302146,0.04295 0.774559,-0.06791 1.013427,0 0.238865,0.06791 -0.238868,0.220221 0,0.288135 0.238865,0.06792 0.69295,-0.03038 1.013426,0 0.716597,0.06792 1.310249,0.220225 2.026848,0.288136 0.320475,0.03038 0.711281,-0.04295 1.013428,0 0.427295,0.06075 0.615927,0.212797 1.013424,0.288143 0.628498,0.119124 1.422558,0.159276 2.026853,0.288136 0.764371,0.162993 1.231851,0.42558 2.026847,0.576271 0.34852,0.06606 2.818104,-0.06317 3.040282,0 0.238866,0.06791 -0.302153,0.245185 0,0.288136 0.370046,0.05261 4.869869,-0.05608 5.067122,0 0.238874,0.06792 -0.238866,0.22022 0,0.288135 0.47774,0.13583 1.42256,-0.08591 2.026849,0 0.427296,0.06075 0.675619,0.192095 1.013424,0.288139 0.675619,0 1.3859,-0.06075 2.026857,0 0.453212,0.04295 0.615922,0.212791 1.013416,0.288136 0.628503,0.119128 1.31026,0.220225 2.026857,0.288139 0.558726,0.05295 3.837036,-0.06161 4.053706,0 0.23886,0.06791 -0.23887,0.220221 0,0.288133 0.0408,0.01162 3.68154,0 4.0537,0 2.02685,0 4.05369,0 6.08055,0 0.4564,0 2.73185,0.04384 3.04028,0 0.42728,-0.06075 0.58612,-0.227387 1.01342,-0.288133 0.30214,-0.04296 0.71128,0.04295 1.01342,0 0.4273,-0.06075 0.58614,-0.227397 1.01343,-0.288139 0.60429,-0.0859 1.54912,0.135826 2.02686,0 0.23886,-0.06792 -0.30215,-0.245185 0,-0.288136 0.60428,-0.08591 1.42255,0.08591 2.02684,0 0.30214,-0.04295 -0.23887,-0.22022 0,-0.288139 0.0325,-0.0093 2.79449,0 3.04027,0 1.68904,0.576279 3.37809,1.152547 5.06713,1.728821 0.33781,0 0.77457,-0.06791 1.01344,0 0.23886,0.06792 -0.23887,0.220221 0,0.28814 0.23886,0.06791 0.71128,-0.04296 1.01342,0 0.26906,0.03825 2.90574,0.787903 3.04029,0.86441 0.15106,0.08591 -0.1511,0.202227 0,0.288132 0.21362,0.121495 0.79976,0.166649 1.01341,0.288136 0.15108,0.0859 -0.15107,0.202234 0,0.288139 0.21365,0.121491 0.79977,0.166649 1.01342,0.288136 0.30215,0.171814 -0.47772,0.440446 0,0.576275 0.23886,0.06791 0.77456,-0.06791 1.01342,0 0.23888,0.06791 -0.23886,0.220221 0,0.288136 0.23888,0.06791 0.77458,-0.06791 1.01344,0 0.23885,0.06791 -0.23886,0.220221 0,0.288135 0.23885,0.06791 0.77455,-0.06791 1.01342,0 0.47774,0.13583 -0.30214,0.404465 0,0.576275 0.21365,0.121491 0.79977,0.166645 1.01342,0.288136 0.30215,0.171811 -0.47773,0.440446 0,0.576275 0.23887,0.06791 0.77456,-0.06791 1.01343,0 0.23886,0.06791 -0.23887,0.220221 0,0.288139 0.23886,0.06791 0.77457,-0.06792 1.01341,0 0.23888,0.06791 -0.23884,0.220218 0,0.288132 0.23888,0.06792 0.77457,-0.06791 1.01345,0 1.36204,0.387255 -1.36205,0.189017 0,0.576275 0.23886,0.06792 0.71127,-0.04295 1.01341,0 4.21764,0.599577 -1.08338,-0.01989 1.01343,0.576272 0.23887,0.06791 0.77455,-0.06791 1.01342,0 0.24387,0.06934 -0.24385,1.083208 0,1.152546 0.23887,0.06792 0.77457,-0.06791 1.01343,0 0.23888,0.06792 -0.23886,0.220225 0,0.288136 0.23888,0.06792 0.77456,-0.06791 1.01343,0 0.47773,0.135829 -0.30215,0.404464 0,0.576278 2.10882,1.199153 -0.07,-0.308028 2.02684,0.288136 0.23887,0.06791 -0.15106,0.20223 0,0.288136 0.4273,0.242977 1.59956,0.333293 2.02685,0.576271 0.15108,0.0859 -0.23885,0.220225 0,0.288139 0.23887,0.06791 0.67563,0 1.01344,0"
       id="path3713"
       inkscape:connector-curvature="0" />
    <path
       style="fill:none;stroke:#000000;stroke-width:0.26458332px;stroke-linecap:butt;stroke-linejoin:miter;stroke-opacity:1"
       d="m 26.458333,133.71428 c 1.007935,0 2.035447,0.19768 3.023809,0 0.349441,-0.0699 0.437216,-0.59658 0.755952,-0.75595 0.216357,-0.10818 3.375922,0 3.779763,0 0.251984,0 0.577773,0.17818 0.755952,0 0.178181,-0.17818 -0.178179,-0.57777 0,-0.75595 0.178181,-0.17818 0.503967,0 0.755951,0 0.251987,0 0.503971,0 0.755955,0 1.511903,0 3.023809,0 4.535712,0 0.251986,0 0.577773,0.17818 0.755954,0 0.178179,-0.17818 -0.178181,-0.57777 0,-0.75595 0.178179,-0.17818 0.503968,0 0.755952,0 0.554929,0 4.272169,0.13177 4.535715,0 0.318735,-0.15937 0.41788,-0.64327 0.755951,-0.75595 0.717159,-0.23906 1.511906,0 2.267858,0 2.015874,0 4.031744,0 6.047618,0 2.116667,0 0.907143,0 3.023809,0 0.503968,0 1.014794,0.0828 1.511906,0 1.267389,-0.21124 2.507803,-0.57425 3.779761,-0.75596 0.498903,-0.0713 1.007938,0 1.511906,0 2.015873,0 4.031744,0 6.047618,0 5.291667,0 10.583333,0 15.875,0 4.283731,0 8.567459,0 12.851195,0 1.76389,0 3.52777,0 5.29166,0 0.75595,0 1.53448,-0.18334 2.26786,0 0.54663,0.13666 0.97737,0.57777 1.5119,0.75596 0.66075,0.22024 4.0804,-0.22767 4.53572,0 0.63747,0.31873 0.87443,1.19316 1.5119,1.5119 0.45077,0.22538 1.15555,-0.35636 1.51191,0 0.17818,0.17818 -0.22538,0.64326 0,0.75595 0.45076,0.22538 1.06114,-0.22538 1.5119,0 0.22538,0.11269 -0.17818,0.57777 0,0.75595 0.17818,0.17818 0.57778,-0.17818 0.75595,0 0.17819,0.17818 -0.17817,0.57778 0,0.75596 0.35636,0.35636 1.15555,-0.35636 1.51191,0 0.17818,0.17818 -0.17818,0.57777 0,0.75595 0.17818,0.17818 0.57777,-0.17818 0.75595,0 0.17818,0.17818 -0.17818,0.57777 0,0.75595 0.17818,0.17818 0.53057,-0.11269 0.75595,0 3.1461,1.57305 -0.80813,-0.0522 0.75596,1.51191 0.17818,0.17818 0.57777,-0.17818 0.75595,0 0.17818,0.17818 -0.17818,0.57777 0,0.75595 0.17818,0.17818 0.57777,-0.17818 0.75595,0 0.0343,0.0343 0,3.42333 0,3.77976 0,2.51984 0,5.03968 0,7.55952 0,0.25199 0,0.50397 0,0.75596 0,0.25198 0.17818,0.57777 0,0.75595 -0.17818,0.17818 -0.57777,-0.17818 -0.75595,0 -0.35636,0.35636 0.35636,1.15554 0,1.5119 -0.17818,0.17818 -0.57777,-0.17818 -0.75595,0 -0.17818,0.17818 0.17818,0.57778 0,0.75596 -0.35636,0.35635 -1.15555,-0.35636 -1.51191,0 -0.35636,0.35635 0.35636,1.15554 0,1.5119 -0.35636,0.35636 -1.06114,-0.22538 -1.5119,0 -0.63748,0.31874 -0.87443,1.19317 -1.51191,1.5119 -0.45076,0.22539 -1.15554,-0.35636 -1.5119,0 -0.17818,0.17819 0.17818,0.57778 0,0.75596 -0.37798,0.37797 -1.88988,-0.37798 -2.26786,0 -0.17818,0.17818 0.17818,0.57777 0,0.75595 -0.35636,0.35636 -1.15554,-0.35636 -1.5119,0 -0.17818,0.17818 0.17817,0.57777 0,0.75595 -0.37798,0.37798 -1.88989,-0.37797 -2.26786,0 -0.17818,0.17818 0.17818,0.57777 0,0.75596 -0.17818,0.17817 -0.53057,-0.1127 -0.75595,0 -0.63748,0.31873 -0.82047,1.33904 -1.51191,1.5119 -0.73338,0.18334 -1.5507,-0.23905 -2.26786,0 -0.23905,0.0797 0.17818,0.57777 0,0.75595 -0.17817,0.17818 -0.53057,-0.11269 -0.75595,0 -0.31874,0.15937 -0.41788,0.64326 -0.75595,0.75596 -0.47811,0.15936 -1.0338,-0.15937 -1.51191,0 -0.67614,0.22538 -0.87442,1.19316 -1.5119,1.5119 -0.45076,0.22538 -1.0338,-0.15937 -1.5119,0 -2.584941,0.86164 -0.562548,0.62701 -3.023814,2.26786 -0.209663,0.13977 -0.503967,0 -0.755951,0 -0.503971,0 -1.061144,-0.22538 -1.511906,0 -0.225383,0.11269 0,0.50396 0,0.75595 -0.503968,0.25198 -0.977366,0.57777 -1.511906,0.75595 -0.717158,0.23905 -1.550697,-0.23905 -2.267855,0 -0.338074,0.11269 -0.437216,0.59658 -0.755954,0.75595 -0.22538,0.11269 -0.530569,-0.11269 -0.755952,0 -0.318738,0.15937 -0.437216,0.59659 -0.755951,0.75595 -0.225383,0.1127 -0.577774,-0.17817 -0.755955,0 -0.178178,0.17819 0.178181,0.57778 0,0.75596 -2.950281,2.95028 -0.405982,-0.17499 -2.267855,0.75595 -0.637476,0.31874 -0.874432,1.19317 -1.511905,1.5119 -0.225383,0.1127 -0.577774,-0.17817 -0.755952,0 -0.356359,0.35636 0.356359,1.15555 0,1.51191 -0.356359,0.35636 -1.155547,-0.35636 -1.511906,0 -0.398423,0.39842 -0.357529,1.11348 -0.755952,1.51191 -1.564092,1.56409 0.06114,-2.39015 -1.511905,0.75595 -0.112689,0.22538 0.178181,0.57777 0,0.75595 -2.950282,2.95028 -0.405982,-0.17499 -2.267858,0.75595 -3.146091,1.57305 0.808141,-0.0522 -0.755951,1.51191 -0.178179,0.17817 -0.577774,-0.17818 -0.755952,0 -0.178181,0.17817 0.112691,0.53057 0,0.75595 -0.159369,0.31874 -0.503968,0.50397 -0.755952,0.75595 -0.251986,0.25199 -0.437216,0.59658 -0.755954,0.75595 -0.22538,0.1127 -0.577771,-0.17818 -0.755952,0 -0.178181,0.17818 0.07968,0.5169 0,0.75596 0.455634,1.36822 -1.224597,1.40594 -1.511905,2.26785 -0.159367,0.47811 0.225382,1.06114 0,1.51191 -0.22538,0.45076 -1.155544,-0.35636 -1.511904,0 -0.178181,0.17818 0.112692,0.53057 0,0.75595 -0.159369,0.31874 -0.596585,0.43721 -0.755951,0.75595 -0.112692,0.22538 0.178178,0.57778 0,0.75595 -0.178181,0.17818 -0.577774,-0.17817 -0.755955,0 -0.154543,0.15455 0.149866,1.96813 0,2.26786 -0.159369,0.31874 -0.503967,0.50397 -0.755951,0.75596 0,0.50396 0.159369,1.03379 0,1.5119 -0.225383,0.67614 -1.286523,0.83576 -1.511906,1.5119 -0.239051,0.71716 0,1.51191 0,2.26786 0,1.76389 0,3.52778 0,5.29167 0,0.35643 -0.03426,3.7455 0,3.77976 0.178181,0.17818 0.643263,-0.22538 0.755954,0 0.22538,0.45076 -0.225382,1.06114 0,1.51191 0.112689,0.22538 0.577771,-0.17819 0.755952,0 0.356359,0.35635 -0.225383,1.06114 0,1.5119 0.159369,0.31874 0.596582,0.43721 0.755951,0.75595 0.112692,0.22538 -0.178178,0.57777 0,0.75595 0.178181,0.17818 0.577774,-0.17818 0.755955,0 0.178178,0.17818 -0.178181,0.57778 0,0.75596 0.178178,0.17817 0.616175,-0.20967 0.755951,0 0.442011,0.66301 0.313942,1.60484 0.755952,2.26785 0.139777,0.20967 0.577773,-0.17818 0.755952,0 0.178181,0.17818 0,0.50397 0,0.75596 0.251986,0.25198 0.459443,0.55827 0.755954,0.75595 0.301149,0.20077 2.96908,1.42981 3.023809,1.5119 0.279551,0.41933 -0.225383,1.06114 0,1.51191 0.22538,0.45076 1.155544,-0.35636 1.511903,0 3.863205,3.8632 -3.16969,-1.05436 2.267858,3.02381 0.450762,0.33807 1.043082,0.4434 1.511905,0.75595 0.296508,0.19767 0.503968,0.50397 0.755952,0.75595 0.842933,0.84293 3.032855,3.28182 3.779763,3.77976 0.209662,0.13978 0.530569,-0.11269 0.755952,0 0.318738,0.15937 0.437213,0.59659 0.755952,0.75596 0.225382,0.11269 0.577773,-0.17819 0.755951,0 0.178181,0.17817 -0.178178,0.57777 0,0.75595 0.35636,0.35636 1.033799,-0.15937 1.511906,0 0.534541,0.17818 1.043083,0.4434 1.511906,0.75595 0.296508,0.19767 0.596583,0.43722 0.755952,0.75595 0.112691,0.22538 -0.225383,0.64326 0,0.75596 0.450762,0.22538 1.06114,-0.22539 1.511903,0 0.225383,0.11269 -0.22538,0.64326 0,0.75595 0.676145,0.33807 1.591715,-0.33807 2.267857,0 0.318739,0.15937 0.437216,0.59658 0.755955,0.75595 0.676142,0.33807 1.591712,-0.33807 2.267855,0 0.225382,0.11269 -0.178179,0.57777 0,0.75595 0.178181,0.17818 0.5169,-0.0797 0.755954,0 0.534536,0.17818 0.977366,0.57778 1.511906,0.75595 0.44017,0.14673 4.01556,0 4.53571,0 0.25199,0 0.50397,0 0.75595,0 0.25199,0 0.53058,-0.11269 0.75596,0 0.31873,0.15937 0.41788,0.64327 0.75595,0.75596 0.51428,0.17142 3.37892,-0.20042 3.77976,0 0.31874,0.15936 0.43722,0.59658 0.75595,0.75595 0.29803,0.14901 3.0331,0 3.77977,0 3.0238,0 6.04761,0 9.07142,0 1.51191,0 3.02381,0 4.53572,0 0.25198,0 0.50397,0 0.75595,0 0.25199,0 0.53057,0.11269 0.75595,0 0.31874,-0.15937 0.43722,-0.59659 0.75595,-0.75595 0.29973,-0.14987 2.11332,0.15454 2.26786,0 0.17818,-0.17818 -0.17818,-0.57777 0,-0.75596 0.35636,-0.35636 1.15555,0.35636 1.51191,0 0.17818,-0.17817 -0.17818,-0.57777 0,-0.75595 0.17818,-0.17818 0.57777,0.17818 0.75595,0 0.17818,-0.17818 -0.17818,-0.57777 0,-0.75595 0.17818,-0.17818 0.53057,0.11269 0.75595,0 0.31874,-0.15937 0.43722,-0.59658 0.75595,-0.75595 0.22539,-0.11269 0.53057,0.11269 0.75596,0 0.31873,-0.15937 0.45944,-0.55828 0.75595,-0.75595 0.46882,-0.31255 1.04308,-0.44341 1.5119,-0.75596 0.29651,-0.19767 0.45945,-0.55828 0.75596,-0.75595 0.46882,-0.31255 1.04308,-0.4434 1.5119,-0.75595 0.29651,-0.19768 0.45944,-0.55828 0.75595,-0.75595 0.46882,-0.31255 0.97737,-0.57778 1.51191,-0.75596 0.4781,-0.15936 1.15554,0.35636 1.5119,0 0.35636,-0.35636 -0.35636,-1.15554 0,-1.5119 0.35636,-0.35636 1.15555,0.35636 1.51191,0 0.23408,-0.23408 -0.23408,-3.54569 0,-3.77976 0.17818,-0.17818 0.57777,0.17818 0.75595,0 0.0243,-0.0243 0,-2.08452 0,-2.26786 0,-1.25992 0,-2.51984 0,-3.77976 0,-0.25199 0.17818,-0.57777 0,-0.75595 -0.17818,-0.17818 -0.57777,0.17818 -0.75595,0 -0.17818,-0.17818 0.17818,-0.57778 0,-0.75596 -0.17818,-0.17818 -0.57777,0.17818 -0.75596,0 -1.56409,-1.56409 2.39014,0.0611 -0.75595,-1.5119 -0.22538,-0.11269 -0.57777,0.17818 -0.75595,0 -0.35636,-0.35636 0.35636,-1.15555 0,-1.51191 -0.35636,-0.35635 -1.15554,0.35636 -1.5119,0 -0.17819,-0.17818 0.17817,-0.57777 0,-0.75595 -1.5641,-1.56409 0.0611,2.39014 -1.51191,-0.75595 -0.11269,-0.22538 0.17818,-0.57777 0,-0.75595 -0.35636,-0.35636 -1.15554,0.35636 -1.5119,0 -0.35636,-0.35636 0.35636,-1.15555 0,-1.51191 -0.17818,-0.17818 -0.57778,0.17818 -0.75596,0 -0.17818,-0.17818 0.17818,-0.57777 0,-0.75595 -0.17818,-0.17818 -0.53057,0.11269 -0.75595,0 -0.31874,-0.15937 -0.43721,-0.59658 -0.75595,-0.75595 -0.22538,-0.11269 -0.57777,0.17818 -0.75595,0 -0.17818,-0.17818 0.22538,-0.64327 0,-0.75596 -0.45077,-0.22538 -1.06115,0.22539 -1.51191,0 -0.22538,-0.11269 0.17818,-0.57777 0,-0.75595 -0.17818,-0.17818 -0.53057,0.11269 -0.75595,0 -0.31874,-0.15937 -0.41788,-0.64326 -0.75595,-0.75595 -0.003,-0.001 -2.26714,7.9e-4 -2.26786,0 -0.17818,-0.17818 0.17818,-0.57777 0,-0.75595 -0.17818,-0.17818 -0.53057,0.11269 -0.75595,0 -0.31874,-0.15937 -0.43722,-0.59659 -0.75595,-0.75596 -0.19546,-0.0977 -3.9999,0 -4.53572,0 -1.76389,0 -3.52778,0 -5.29167,0 -0.25198,0 -0.57777,-0.17817 -0.75595,0 -0.17818,0.17819 0.17818,0.57778 0,0.75596 -0.37797,0.37797 -1.88988,-0.37798 -2.26786,0 -0.17817,0.17818 0.17819,0.57777 0,0.75595 -0.17817,0.17818 -0.57777,-0.17818 -0.75595,0 -0.17818,0.17818 0.17818,0.57777 0,0.75595 -0.17818,0.17818 -0.57777,-0.17818 -0.75595,0 -0.17818,0.17818 0.17818,0.57778 0,0.75595 -1.56409,1.5641 0.0611,-2.39014 -1.5119,0.75596 -0.1127,0.22538 0.17818,0.57777 0,0.75595 -1.5641,1.56409 0.0611,-2.39014 -1.51191,0.75595 -0.11269,0.22538 0.17818,0.57777 0,0.75596 -0.35636,0.35635 -1.15554,-0.35637 -1.5119,0 -0.35636,0.35635 0.35636,1.15554 0,1.5119 -0.17818,0.17818 -0.57778,-0.17818 -0.75596,0 -0.17818,0.17818 0.17818,0.57777 0,0.75595 -0.17818,0.17818 -0.57777,-0.17818 -0.75595,0 -0.17818,0.17818 0.11269,0.53057 0,0.75595 -0.15937,0.31874 -0.59658,0.43722 -0.75595,0.75596 -0.22538,0.45076 0.35636,1.15554 0,1.5119 -1.56409,1.56409 0.0611,-2.39014 -1.51191,0.75595 -0.11269,0.22538 0.11269,0.53058 0,0.75596 -1.72985,3.45969 0.31332,-3.20783 -1.5119,2.26785 -0.0797,0.23906 0.17818,0.57778 0,0.75595 -0.17818,0.17819 -0.57777,-0.17817 -0.75595,0 -0.17818,0.17819 0,0.50397 0,0.75596 -0.25199,0 -0.57778,-0.17818 -0.75596,0 -0.17817,0.17818 0.11269,0.53057 0,0.75595 -1.72984,3.4597 0.31333,-3.20782 -1.5119,2.26786 -0.46547,1.3964 1.15351,0.35839 -0.75595,2.26786 -0.17818,0.17817 -0.57777,-0.17819 -0.75596,0 -0.35635,0.35635 0.22539,1.06114 0,1.5119 -0.15936,0.31874 -0.59658,0.43721 -0.75595,0.75595 -0.11269,0.22538 0.17818,0.57777 0,0.75595 -0.17818,0.17818 -0.57777,-0.17818 -0.75595,0 -0.17818,0.17818 0.17818,0.57777 0,0.75596 -0.17818,0.17817 -0.57777,-0.17819 -0.75595,0 -0.17818,0.17817 0.0797,0.51689 0,0.75595 -1.825228,5.47568 0.21794,-1.19184 -1.511906,2.26786 -0.112692,0.22538 0.112688,0.53057 0,0.75595 -0.318738,0.63747 -1.193168,0.87443 -1.511906,1.5119 -0.112691,0.22538 0.178181,0.57778 0,0.75595 -1.564092,1.5641 0.06114,-2.39014 -1.511903,0.75596 -0.112692,0.22538 0.178178,0.57777 0,0.75595 -0.178181,0.17818 -0.643263,-0.22538 -0.755955,0 -0.676142,0.59634 0.338074,1.59171 0,2.26786 -0.159369,0.31873 -0.596582,0.43721 -0.755951,0.75595 -0.112692,0.22538 0.112691,0.53057 0,0.75595 -0.159369,0.31874 -0.558279,0.45944 -0.755952,0.75595 -0.46037,0.69056 -0.645268,1.83454 -1.511906,2.26786 -1.042728,0.52136 -0.676177,-0.9155 -1.511903,0.75595 -0.338074,0.67615 0.338071,1.59172 0,2.26786 -0.112691,0.22538 -0.577773,-0.17818 -0.755954,0 -0.178179,0.17818 0.178181,0.57777 0,0.75595 -1.564092,1.5641 0.06114,-2.39014 -1.511903,0.75595 -0.225383,0.45077 0.356359,1.15555 0,1.51191 -0.178181,0.17818 -0.577774,-0.17818 -0.755955,0 -0.178178,0.17818 0.178181,0.57777 0,0.75595 -0.178178,0.17818 -0.57777,-0.17818 -0.755951,0 -0.178179,0.17818 0.178181,0.57778 0,0.75595 -0.178179,0.17818 -0.577774,-0.17817 -0.755952,0 -0.178181,0.17818 0.112691,0.53058 0,0.75596 -1.729848,3.4597 0.31332,-3.20782 -1.511906,2.26785 -0.07968,0.23906 0.178181,0.57778 0,0.75596 -0.178178,0.17818 -0.530569,-0.11269 -0.755951,0 -0.200713,0.10035 -2.167501,2.06714 -2.267858,2.26785 -0.112691,0.22538 0.178181,0.57778 0,0.75596 -0.493204,0.4932 -1.018701,-0.49321 -1.511903,0 -0.356359,0.35636 0.22538,1.06114 0,1.5119 -0.159369,0.31874 -0.596585,0.43722 -0.755954,0.75595 -0.112689,0.22538 0.178181,0.57777 0,0.75596 -0.35636,0.35635 -1.155544,-0.35636 -1.511904,0 -0.178181,0.17817 0.112689,0.53057 0,0.75595 -0.159369,0.31874 -0.503967,0.50396 -0.755954,0.75595 -0.251984,0.25199 -0.437213,0.59658 -0.755951,0.75595 -0.225381,0.11269 -0.577774,-0.17818 -0.755952,0 -0.356359,0.35636 0.356359,1.15555 0,1.51191 -0.356359,0.35636 -1.155547,-0.35636 -1.511906,0 -0.178178,0.17818 0.112691,0.53057 0,0.75595 -1.573046,3.14609 0.05219,-0.80814 -1.511903,0.75595 -0.35636,0.35636 0.22538,1.06114 0,1.51191 -0.76445,1.5289 -1.75432,0.24241 -2.267858,0.75594 -0.178181,0.1782 0.178179,0.57777 0,0.75597 -0.178181,0.17817 -0.530571,-0.11269 -0.755951,0 -0.318739,0.15936 -0.437216,0.59658 -0.755955,0.75594 -0.22538,0.11269 -0.57777,-0.17817 -0.755951,0 -0.178181,0.17817 0.178181,0.57777 0,0.75597 -0.181907,0.1819 -2.841903,-0.18193 -3.023809,0 -0.178181,0.17817 0.178178,0.57777 0,0.75594 -0.178181,0.17817 -0.503968,0 -0.755952,0 -1.259922,0 -2.519841,0 -3.779763,0 -0.251984,0 -0.577774,0.17817 -0.755952,0 -0.178181,-0.17817 0.178178,-0.57777 0,-0.75594 -0.178181,-0.1782 -0.530572,0.11268 -0.755952,0 -0.318738,-0.15939 -0.437216,-0.59658 -0.755954,-0.75597 -0.22538,-0.11269 -0.57777,0.17817 -0.755951,0 -0.178181,-0.17817 0.112691,-0.53057 0,-0.75594 -1.573046,-3.1461 0.05219,0.80814 -1.511906,-0.75597 -0.178179,-0.17817 0.178181,-0.57777 0,-0.75594 -0.178179,-0.17817 -0.577771,0.17817 -0.755952,0 -0.178178,-0.17817 0.178181,-0.57777 0,-0.75596 -0.178178,-0.17817 -0.577773,0.17819 -0.755952,0 -0.178181,-0.17817 0.178179,-0.57777 0,-0.75595 -0.356359,-0.35636 -1.155546,0.35636 -1.511905,0 -0.178179,-0.17818 0.178181,-0.57777 0,-0.75595 -0.178179,-0.17818 -0.530569,0.11269 -0.755952,0 -0.144706,-0.0724 -2.951456,-2.87911 -3.023809,-3.02381 -0.112691,-0.22538 0.112691,-0.53057 0,-0.75595 -0.159369,-0.31874 -0.596585,-0.43722 -0.755952,-0.75595 -0.112691,-0.22539 0.178179,-0.57778 0,-0.75596 -0.178181,-0.17818 -0.577773,0.17818 -0.755954,0 -0.178178,-0.17818 0,-0.50397 0,-0.75595 0,-0.25198 0,-0.50397 0,-0.75595 0,-2.01588 0.251984,0.25198 -0.755952,-0.75595 -0.377975,-0.37798 0.377976,-1.88989 0,-2.26786 -0.178181,-0.17818 -0.577773,0.17818 -0.755951,0 -0.178181,-0.17818 0,-0.50397 0,-0.75595 0,-1.51191 0,-3.02381 0,-4.53572 0,-2.01587 0,-4.03174 0,-6.04762 0,-0.25198 0,-0.50397 0,-0.75595 0,-0.25198 -0.178181,-0.57777 0,-0.75595 0.178178,-0.17818 0.57777,0.17818 0.755951,0 0.35636,-0.35636 -0.225382,-1.06114 0,-1.51191 1.573046,-3.14609 -0.05219,0.80814 1.511906,-0.75595 0.178179,-0.17818 -0.07968,-0.5169 0,-0.75595 0.178179,-0.53454 0.443405,-1.04308 0.755952,-1.51191 0.395346,-0.59301 1.11656,-0.91888 1.511903,-1.5119 0.31255,-0.46882 0.443405,-1.04308 0.755954,-1.51191 -0.07546,-1.49758 1.113483,-0.35752 1.511904,-0.75595 0.356359,-0.35636 -0.35636,-1.15554 0,-1.5119 0.377975,-0.37798 1.889881,0.37798 2.267857,0 0.178181,-0.17818 -0.178178,-0.57777 0,-0.75595 0.178181,-0.17818 0.503968,0 0.755952,0 0.251986,-0.50397 0.577773,-0.97737 0.755954,-1.51191 0.07968,-0.23905 -0.178181,-0.57777 0,-0.75595 0.178178,-0.17818 0.577771,0.17818 0.755952,0 0.178181,-0.17818 -0.178181,-0.57778 0,-0.75595 0.178181,-0.17819 0.577773,0.17817 0.755951,0 0.178181,-0.17819 -0.178178,-0.57778 0,-0.75596 0.178181,-0.17818 0.577773,0.17818 0.755954,0 0.178179,-0.17818 -0.178181,-0.57777 0,-0.75595 0.178179,-0.17818 0.577771,0.17818 0.755952,0 0.178178,-0.17818 -0.112691,-0.53057 0,-0.75595 1.573046,-3.14609 -0.05219,0.80814 1.511903,-0.75595 0.178181,-0.17818 -0.178178,-0.57778 0,-0.75595 0.178181,-0.17819 0.577774,0.17817 0.755955,0 0.178178,-0.17819 -0.112692,-0.53058 0,-0.75596 0.159369,-0.31874 0.596582,-0.43721 0.755951,-0.75595 0.112692,-0.22538 -0.178181,-0.57777 0,-0.75595 0.178181,-0.17818 0.577773,0.17818 0.755952,0 0.356359,-0.35636 -0.35636,-1.15555 0,-1.51191 0.178181,-0.17818 0.577773,0.17818 0.755954,0 0.02432,-0.0243 0,-2.08452 0,-2.26786"
       id="path3715"
       inkscape:connector-curvature="0" />
    <path
       style="fill:none;stroke:#000000;stroke-width:0.26458332px;stroke-linecap:butt;stroke-linejoin:miter;stroke-opacity:1"
       d="m 165.55357,109.52381 c 15.875,114.90476 34.01785,5.29167 34.01785,5.29167 L 175.38095,52.82738 97.517856,99.696427 56.174383,74.371175"
       id="path3717"
       inkscape:connector-curvature="0" />
  </g>
</svg>
