<?xml version="1.0" encoding="utf-8"?>
<!-- Generator: Adobe Illustrator 21.1.0, SVG Export Plug-In . SVG Version: 6.00 Build 0)  -->
<svg version="1.1" id="Layer_1" xmlns="http://www.w3.org/2000/svg" xmlns:xlink="http://www.w3.org/1999/xlink" x="0px" y="0px"
	 viewBox="0 0 595.3 841.9" style="enable-background:new 0 0 595.3 841.9;" xml:space="preserve">
<g>
	<g>
		<path d="M248,156.4c-30.1,5.8-60.3,11.7-89.3,21.7c-14.3,4.9-28.3,10.7-41.6,17.9c-12.8,6.9-26.5,14.9-35.9,26.1
			c-9.1,10.7-14.2,25.1-6.1,38c7,11.1,19.4,20,30.6,26.5c23,13.4,50.7,19.3,77.2,16.2c25.2-2.9,60.2-14.4,64.8-43.4
			c2.1-13.6-3.9-26.8-16.8-32.6c-12.5-5.5-26.8-3.7-39,1.7c-25,11.1-44.3,39.8-44.3,67.3c0,28.3,19.3,52.6,40,69.9
			c47.6,39.8,108.8,60.9,167.4,78.5c7.5,2.2,15,4.4,22.6,6.6c0-3.9,0-7.7,0-11.6c-89.4,28.8-173.3,73.3-247.5,130.9
			c-9.4,7.3-18.6,14.7-27.6,22.4c-8.4,7.2-13,16.1-6.3,26.5c5.9,9.1,16.4,16.1,25.3,22.1c9.8,6.7,20.3,12.5,30.9,17.7
			c42.8,21.2,89.1,34.2,136.1,41.6c53.1,8.3,107,10,160.7,9.4c8-0.1,7.4-11,0-12C358,686,266.5,673.2,177.9,647.6
			c-21.2-6.1-43-12.3-63.3-20.9c-8.9-3.7-16.4-9.3-18.2-19.3c-1.7-9.7,1.9-19.2,7-27.3c5.7-8.8,13.2-16.5,20.5-23.9
			c7.3-7.4,14.9-14.5,22.8-21.4c15.3-13.4,31.5-25.7,48-37.7c37.6-27.2,76.6-52.4,112-82.5c5.9-5-2.6-13.5-8.5-8.5
			c-33.1,28.1-69.5,51.9-104.8,77.1c-17.4,12.5-34.5,25.3-50.8,39.2c-16.3,13.9-32.8,28.8-45.7,46c-11.8,15.7-19.1,38.6-5.9,55.9
			c6.2,8.1,15.6,12.2,24.8,15.7c11.1,4.1,22.3,7.9,33.6,11.5c45.5,14.6,92.2,25.4,139.2,34.2c53.2,9.9,106.9,17.1,160.6,24
			c0-4,0-8,0-12c-90.1,1.1-183-4-267.4-38.7c-20.4-8.4-40.7-18.4-58.6-31.3c-5.4-3.9-23.8-15.4-16.3-23.1c7.5-7.9,17-14.5,25.5-21.3
			c34.7-27.5,71.8-52,110.6-73.3c43.9-24.1,90-44,137.7-59.3c5.6-1.8,5.8-9.9,0-11.6c-52.8-15.3-106.1-31.6-153.4-60.3
			c-22-13.3-44.3-29.2-57.9-51.5c-6-9.8-10-20.8-9.8-32.4c0.2-13.2,6-26,13.9-36.4c7-9.3,16.7-17.4,27.8-21c9.8-3.2,23.8-4,31.1,4.8
			c8.2,9.8,2.2,23.8-6,31.3c-9.1,8.3-21.8,12.7-33.5,15.3c-22.5,5.1-46.7,2.6-68-6.2c-10.8-4.5-21.1-10.8-29.9-18.6
			c-4.1-3.6-9-7.8-11.1-12.9c-2.4-5.8-0.3-11.7,2.9-16.7c7.8-12.4,22.4-20.5,34.9-27.4c12.8-7,26.3-12.7,40.2-17.5
			c29-9.9,59.2-15.9,89.3-21.7C258.7,166.5,255.5,154.9,248,156.4L248,156.4z"/>
	</g>
</g>
</svg>
