<?xml version="1.0" encoding="utf-8"?>
<!-- Generator: Adobe Illustrator 21.1.0, SVG Export Plug-In . SVG Version: 6.00 Build 0)  -->
<svg version="1.1" id="Layer_1" xmlns="http://www.w3.org/2000/svg" xmlns:xlink="http://www.w3.org/1999/xlink" x="0px" y="0px"
	 viewBox="0 0 595.3 841.9" style="enable-background:new 0 0 595.3 841.9;" xml:space="preserve">
<style type="text/css">
	.st0{fill:none;}
	.st1{font-family:'MyriadPro-Regular';}
	.st2{font-size:12px;}
</style>
<g>
	<g>
		<path d="M248,156.4c-30.1,5.8-60.3,11.7-89.3,21.7c-14.3,4.9-28.3,10.7-41.6,17.9c-12.8,6.9-26.5,14.9-35.9,26.1
			c-9.1,10.7-14.2,25.1-6.1,38c7,11.1,19.4,20,30.6,26.5c23,13.4,50.7,19.3,77.2,16.2c25.2-2.9,60.2-14.4,64.8-43.4
			c2.1-13.6-3.9-26.8-16.8-32.6c-12.5-5.5-26.8-3.7-39,1.7c-25,11.1-44.3,39.8-44.3,67.3c0,28.3,19.3,52.6,40,69.9
			c47.6,39.8,108.8,60.9,167.4,78.5c7.5,2.2,15,4.4,22.6,6.6c0-3.9,0-7.7,0-11.6c-89.4,28.8-173.3,73.3-247.5,130.9
			c-9.4,7.3-18.6,14.7-27.6,22.4c-8.4,7.2-13,16.1-6.3,26.5c5.9,9.1,16.4,16.1,25.3,22.1c9.8,6.7,20.3,12.5,30.9,17.7
			c42.8,21.2,89.1,34.2,136.1,41.6c53.1,8.3,107,10,160.7,9.4c8-0.1,7.4-11,0-12C358,686,266.5,673.2,177.9,647.6
			c-21.2-6.1-43-12.3-63.3-20.9c-8.9-3.7-16.4-9.3-18.2-19.3c-1.7-9.7,1.9-19.2,7-27.3c5.7-8.8,13.2-16.5,20.5-23.9
			c7.3-7.4,14.9-14.5,22.8-21.4c15.3-13.4,31.5-25.7,48-37.7c37.6-27.2,76.6-52.4,112-82.5c5.9-5-2.6-13.5-8.5-8.5
			c-33.1,28.1-69.5,51.9-104.8,77.1c-17.4,12.5-34.5,25.3-50.8,39.2c-16.3,13.9-32.8,28.8-45.7,46c-11.8,15.7-19.1,38.6-5.9,55.9
			c6.2,8.1,15.6,12.2,24.8,15.7c11.1,4.1,22.3,7.9,33.6,11.5c45.5,14.6,92.2,25.4,139.2,34.2c53.2,9.9,106.9,17.1,160.6,24
			c0-4,0-8,0-12c-90.1,1.1-183-4-267.4-38.7c-20.4-8.4-40.7-18.4-58.6-31.3c-5.4-3.9-23.8-15.4-16.3-23.1c7.5-7.9,17-14.5,25.5-21.3
			c34.7-27.5,71.8-52,110.6-73.3c43.9-24.1,90-44,137.7-59.3c5.6-1.8,5.8-9.9,0-11.6c-52.8-15.3-106.1-31.6-153.4-60.3
			c-22-13.3-44.3-29.2-57.9-51.5c-6-9.8-10-20.8-9.8-32.4c0.2-13.2,6-26,13.9-36.4c7-9.3,16.7-17.4,27.8-21c9.8-3.2,23.8-4,31.1,4.8
			c8.2,9.8,2.2,23.8-6,31.3c-9.1,8.3-21.8,12.7-33.5,15.3c-22.5,5.1-46.7,2.6-68-6.2c-10.8-4.5-21.1-10.8-29.9-18.6
			c-4.1-3.6-9-7.8-11.1-12.9c-2.4-5.8-0.3-11.7,2.9-16.7c7.8-12.4,22.4-20.5,34.9-27.4c12.8-7,26.3-12.7,40.2-17.5
			c29-9.9,59.2-15.9,89.3-21.7C258.7,166.5,255.5,154.9,248,156.4L248,156.4z"/>
	</g>
</g>
<g>
	<g>
		<path d="M412.9,253.2c-15.6,17.9-31.9,36.6-38.7,59.8c-3.3,11-4.3,22.7-2.3,34c0.9,5.3,2.6,10.4,4.9,15.2c2,4.1,7.4,9.4,4.1,13.9
			c-2.6,3.6-8.2,5.5-12.1,7.3c-5.8,2.6-11.8,5.1-17.8,7.4c-11.5,4.4-23.2,8.3-35,11.9c-24.3,7.3-49,13.2-73.7,19.2
			c-27.6,6.7-55.2,13.6-82.2,22.7c-1.9,0.6-3.8,2.1-4.2,4.2c-1.7,9.1,4.9,14.9,12.8,18c10.9,4.2,22.8,6.6,34.1,9.8
			c11.6,3.3,23.2,6.5,34.8,9.8c8.5,2.4,18.6,5,24.2,12.4c0.7-2.7,1.4-5.5,2.2-8.2c-18.9,13.9-37.7,27.8-56.6,41.7
			c-9.3,6.9-18.6,13.7-27.9,20.6c-7.6,5.6-15.5,11-21.9,17.9c-5.8,6.2-10.3,13.7-11.1,22.4c-0.9,9.9,3.9,19,9.2,27.1
			c11.4,17.2,25,32.2,39.6,46.6c6.3,6.2,12.9,16,2.7,21.7c-6.8,3.8-14.2,6.5-16.5,14.9c-0.8,2.9,1,6.9,4.2,7.4
			c82,12.7,164.4,22.7,247,30.1c6.7,0.6,8.2-10.4,1.6-11.8c-21.7-4.4-42.9-10.5-63.6-18.3c1.2,2.9,2.4,5.9,3.6,8.8
			c13.5-24.8,39.1-39.1,56.5-60.6c15.8-19.6,25.7-48.7,9.5-71.3c-4.5-6.2-14.9-0.2-10.4,6.1c15.4,21.5,1.5,47.6-14.3,64.2
			c-17.5,18.4-39.4,32.8-51.8,55.6c-2,3.6-0.1,7.4,3.6,8.8c20.7,7.8,41.9,13.9,63.6,18.3c0.5-3.9,1.1-7.9,1.6-11.8
			c-81.6-7.2-162.9-17.1-243.9-29.6c1.4,2.5,2.8,4.9,4.2,7.4c1.3-4.9,10-6.8,13.9-9.5c6.8-4.8,9.7-12.5,8.1-20.7
			c-1.8-8.9-8.4-15.3-14.7-21.3c-7.3-7-14.1-14.3-20.5-22.1c-6.3-7.7-12.5-15.8-17.3-24.4c-4.6-8.1-5.6-16.1-0.5-24.1
			c4.8-7.5,12.4-13,19.5-18.2c9-6.7,18.1-13.3,27.1-20c20.5-15.1,40.9-30.2,61.4-45.2c2.4-1.7,4.3-5.4,2.2-8.2
			c-11.5-15.1-32.1-18.1-49.2-22.9c-10.7-3-21.3-6-32-9c-2.3-0.6-24.1-5-23.4-8.8c-1.4,1.4-2.8,2.8-4.2,4.2
			c48.7-16.5,99.5-25.5,148.9-39.8c12.1-3.5,24.2-7.4,36-11.7c11.5-4.2,24.2-8.4,34.6-14.8c9.2-5.7,13.8-14.9,8.8-25.2
			c-2.4-4.9-5.4-9.2-6.9-14.5c-1.7-5.7-2.2-11.7-2-17.7c1.3-28.1,20.9-50.6,38.5-70.8C426.4,255.9,417.9,247.4,412.9,253.2
			L412.9,253.2z"/>
	</g>
</g>
<g>
	<g>
		<path d="M367.4,154c-23.4,14.4-43.2,34.3-57,58.1c-15.6,26.9-24.2,57.4-37.1,85.6c-24.5,53.6-57.7,103.9-104.1,140.9
			c-11,8.8-22.8,16.7-35.1,23.6c-6.2,3.5-12.6,6.9-19.3,9.7c-2.8,1.2-6.4,2.7-9.4,1.4c-2.8-1.2-4.9-4.6-6.7-7
			c-15.5-20.9-24.4-46.4-26.1-72.3c-1.5-24.9,2.9-53.3,17.1-74.4c6.9-10.2,18-17.8,29.7-10.2c5.4,3.5,9.6,8.9,13.6,13.9
			c5.1,6.4,10.1,12.9,15.2,19.3c20.8,26.5,41.6,53,62.4,79.6c9.9,12.6,19.5,25.6,29.9,37.7c9.3,10.9,20.2,20.5,33.6,25.8
			c6.6,2.6,13.7,3.9,20.8,3.7c7.7-0.2,7.7-12.2,0-12c-15.6,0.4-29-8.2-39.6-19c-11.6-11.8-21.2-25.5-31.4-38.5
			c-21.8-27.8-43.7-55.6-65.5-83.5c-15-19.1-37.8-57.4-66.6-36.4c-10.8,7.9-17.1,20.1-21.9,32.3c-5,12.8-8,26.4-9.1,40.2
			c-2.3,27.5,3.1,55.6,15.5,80.2c3,5.9,6.4,11.6,10.2,17c3.8,5.4,7.9,11.8,14.1,14.5c7,3.1,14.4,0.5,20.9-2.4
			c6.8-3,13.4-6.5,19.9-10.1c53.2-30.2,94.1-78.3,123.5-131.2C281,312,293,282.1,304.9,252c11.5-28.9,26.6-54.8,50.7-75
			c5.6-4.7,11.6-8.8,17.8-12.7C380,160.3,374,149.9,367.4,154L367.4,154z"/>
	</g>
</g>
<rect x="190.9" y="54.6" class="st0" width="192.4" height="103.4"/>
<text transform="matrix(1 0 0 1 190.8965 63.1406)"><tspan x="0" y="0" class="st1 st2">Lorem ipsum dolor sit amet, consec</tspan><tspan x="177.2" y="0" class="st1 st2">-</tspan><tspan x="0" y="14.4" class="st1 st2">tetuer adipiscing elit, sed diam </tspan><tspan x="0" y="28.8" class="st1 st2">nonummy nibh euismod tincidunt ut </tspan><tspan x="0" y="43.2" class="st1 st2">laoreet dolore magna aliquam erat </tspan><tspan x="0" y="57.6" class="st1 st2">volutpat. Ut wisi enim ad minim </tspan><tspan x="0" y="72" class="st1 st2">veniam, quis nostrud exerci tation </tspan><tspan x="0" y="86.4" class="st1 st2">ullamcorper suscipit lobortis nisl ut </tspan></text>
<text transform="matrix(1 0 0 1 335.0342 260.1377)" class="st1 st2">Lorem ipsum</text>
</svg>
